<svg xmlns="http://www.w3.org/2000/svg" xmlns:xlink="http://www.w3.org/1999/xlink" width="300" zoomAndPan="magnify" viewBox="0 0 224.87999 60" height="80" preserveAspectRatio="xMidYMid meet" version="1.0"><defs><g/><clipPath id="21ce9d5ad5"><path d="M 127 18 L 148 18 L 148 59.984375 L 127 59.984375 Z M 127 18 " clip-rule="nonzero"/></clipPath></defs><g fill="#6d4d3a" fill-opacity="0.1882"><g transform="translate(-1.415216, 38.233776)"><g><path d="M 26.769531 -11.730469 C 27.128906 -14.714844 27.488281 -17.703125 27.847656 -20.726562 C 28.316406 -24.144531 28.820312 -27.5625 29.253906 -30.980469 C 29.359375 -31.664062 29.394531 -32.382812 29.394531 -33.101562 C 29.394531 -33.929688 29 -34.289062 28.171875 -34.324219 C 27.488281 -34.363281 26.878906 -34.109375 26.410156 -33.605469 C 25.726562 -32.886719 25.042969 -32.167969 24.429688 -31.410156 C 20.257812 -26.15625 16.695312 -20.507812 13.78125 -14.464844 C 12.484375 -11.800781 11.226562 -9.101562 9.964844 -6.441406 C 9.644531 -5.757812 9.246094 -5.289062 8.492188 -5 C 7.484375 -4.605469 6.476562 -4.136719 5.503906 -3.632812 C 4.425781 -3.09375 3.382812 -2.484375 2.375 -1.871094 C 2.050781 -1.691406 1.691406 -1.4375 1.800781 -0.933594 C 2.375 -0.394531 3.058594 -0.359375 3.777344 -0.613281 C 4.929688 -1.007812 6.007812 -1.476562 7.160156 -1.90625 C 7.375 -1.980469 7.628906 -1.941406 7.988281 -2.015625 C 7.773438 -1.367188 7.59375 -0.933594 7.410156 -0.46875 C 6.800781 1.402344 6.117188 3.273438 5.578125 5.144531 C 5.289062 6.082031 5.179688 7.089844 5.039062 8.058594 C 5 8.3125 5.039062 8.636719 5.179688 8.851562 C 5.289062 9.03125 5.578125 9.210938 5.828125 9.210938 C 5.972656 9.246094 6.226562 9.03125 6.296875 8.886719 C 6.511719 8.203125 6.585938 7.484375 6.871094 6.800781 C 8.058594 3.707031 9.320312 0.613281 10.542969 -2.519531 C 10.832031 -3.238281 11.296875 -3.632812 12.019531 -3.886719 C 15.4375 -5.109375 18.816406 -6.367188 22.234375 -7.59375 C 22.558594 -7.699219 22.957031 -7.734375 23.386719 -7.84375 C 23.386719 -7.269531 23.421875 -6.765625 23.386719 -6.296875 C 23.242188 -4.820312 23.136719 -3.347656 22.992188 -1.871094 C 22.558594 2.445312 22.308594 6.765625 22.453125 11.082031 C 22.488281 12.339844 22.632812 13.601562 22.777344 14.859375 C 22.847656 15.398438 22.992188 15.941406 23.207031 16.441406 C 23.460938 17.089844 23.964844 17.523438 24.683594 17.558594 C 25.4375 17.628906 26.050781 17.378906 26.480469 16.550781 C 26.015625 16.441406 25.617188 16.335938 25.1875 16.191406 C 25.113281 15.832031 25.042969 15.542969 25.007812 15.21875 C 24.71875 12.953125 24.71875 10.722656 24.898438 8.492188 C 25.292969 3.777344 25.691406 -0.898438 26.121094 -5.613281 C 26.195312 -6.691406 26.375 -7.773438 26.519531 -8.851562 C 29.214844 -9.605469 31.734375 -10.398438 34.433594 -10.613281 C 34.433594 -10.867188 34.433594 -11.011719 34.398438 -11.191406 C 34.363281 -11.332031 34.253906 -11.476562 34.144531 -11.621094 C 31.699219 -12.054688 29.394531 -11.226562 26.839844 -10.902344 C 26.804688 -11.296875 26.769531 -11.515625 26.769531 -11.730469 Z M 26.914062 -31.195312 C 26.804688 -29.359375 26.375 -27.707031 26.085938 -26.015625 C 25.796875 -24.25 25.511719 -22.453125 25.257812 -20.6875 C 24.96875 -18.925781 24.71875 -17.199219 24.46875 -15.472656 C 24.214844 -13.746094 24.035156 -12.019531 23.785156 -10.148438 C 21.984375 -9.535156 20.113281 -9.140625 18.277344 -8.5625 C 16.480469 -7.988281 14.679688 -7.410156 12.808594 -6.835938 C 13.925781 -11.226562 23.386719 -27.5625 26.914062 -31.195312 Z M 26.914062 -31.195312 "/></g></g></g><g fill="#6d4d3a" fill-opacity="0.1882"><g transform="translate(32.478766, 38.233776)"><g><path d="M 10.542969 -10.183594 C 10.289062 -11.117188 9.714844 -11.550781 8.742188 -11.476562 C 7.988281 -11.40625 7.375 -11.117188 6.871094 -10.542969 C 5.972656 -9.464844 5.074219 -8.347656 4.136719 -7.269531 C 3.921875 -6.980469 3.671875 -6.691406 3.203125 -6.1875 C 3.347656 -8.167969 4.28125 -9.644531 4.390625 -11.40625 C 3.671875 -11.65625 3.238281 -11.550781 2.949219 -11.046875 C 2.734375 -10.722656 2.554688 -10.363281 2.410156 -10.039062 C 1.296875 -7.410156 0.179688 -4.785156 -0.933594 -2.160156 C -1.117188 -1.726562 -1.257812 -1.257812 -1.367188 -0.792969 C -1.546875 -0.0351562 -1.1875 0.394531 -0.394531 0.394531 C 0.144531 0.394531 0.683594 0.25 1.078125 -0.179688 C 1.546875 -0.613281 2.015625 -1.078125 2.410156 -1.617188 C 3.238281 -2.664062 3.957031 -3.742188 4.75 -4.785156 C 5.722656 -6.082031 6.726562 -7.375 7.773438 -8.671875 C 7.988281 -8.960938 8.277344 -9.175781 8.671875 -9.5 C 8.851562 -8.960938 8.996094 -8.5625 9.101562 -8.167969 C 9.210938 -7.84375 9.246094 -7.519531 9.425781 -7.230469 C 9.535156 -7.050781 9.824219 -6.871094 10.039062 -6.835938 C 10.148438 -6.835938 10.398438 -7.089844 10.46875 -7.269531 C 10.757812 -8.238281 10.757812 -9.210938 10.542969 -10.183594 Z M 10.542969 -10.183594 "/></g></g></g><g fill="#6d4d3a" fill-opacity="0.1882"><g transform="translate(45.072071, 38.233776)"><g><path d="M 18.890625 -23.027344 C 17.667969 -23.136719 16.480469 -23.242188 15.253906 -23.171875 C 12.59375 -23.101562 9.894531 -22.917969 7.230469 -22.777344 C 6.871094 -22.777344 6.511719 -22.847656 6.082031 -22.882812 C 6.332031 -23.855469 6.546875 -24.71875 6.765625 -25.546875 C 6.980469 -26.375 7.484375 -27.128906 7.449219 -28.066406 C 6.585938 -28.425781 5.972656 -28.136719 5.613281 -27.453125 C 5.179688 -26.625 4.820312 -25.761719 4.496094 -24.898438 C 4.246094 -24.144531 4.03125 -23.351562 3.777344 -22.523438 C 2.734375 -22.378906 1.761719 -22.273438 0.792969 -22.128906 C -0.863281 -21.914062 -2.484375 -21.695312 -4.101562 -21.410156 C -4.714844 -21.300781 -5.398438 -21.265625 -5.828125 -20.617188 C -4.964844 -20.148438 -4.964844 -20.148438 -4.460938 -20.222656 C -2.160156 -20.507812 0.109375 -20.796875 2.375 -21.085938 C 2.664062 -21.121094 2.988281 -21.011719 3.347656 -20.976562 C 3.238281 -20.4375 3.128906 -20.003906 3.023438 -19.609375 C 1.691406 -14.464844 0.433594 -9.28125 -0.613281 -4.101562 C -1.402344 -0.289062 -2.160156 3.527344 -2.589844 7.410156 C -2.625 7.953125 -2.625 8.492188 -2.589844 9.03125 C -2.554688 9.28125 -2.410156 9.570312 -1.941406 9.5 C -1.835938 9.066406 -1.691406 8.636719 -1.582031 8.167969 C -1.402344 7.195312 -1.222656 6.226562 -1.042969 5.253906 C 0.828125 -3.417969 3.308594 -11.945312 5.46875 -20.546875 C 5.542969 -20.867188 5.722656 -21.121094 5.863281 -21.410156 C 10.507812 -21.839844 15.039062 -22.378906 19.679688 -22.667969 C 19.429688 -22.8125 19.140625 -23.027344 18.890625 -23.027344 Z M 18.890625 -23.027344 "/></g></g></g><g fill="#6d4d3a" fill-opacity="0.1882"><g transform="translate(51.008912, 38.233776)"><g><path d="M 12.199219 -9.390625 C 11.476562 -9.101562 11.296875 -8.5625 11.011719 -8.132812 C 9.246094 -5.792969 7.160156 -3.8125 4.640625 -2.265625 C 3.957031 -1.835938 3.273438 -1.402344 2.304688 -1.332031 C 2.160156 -1.691406 1.980469 -2.015625 1.941406 -2.375 C 1.941406 -2.804688 2.015625 -3.238281 2.121094 -3.671875 C 2.589844 -5.179688 3.058594 -6.691406 3.5625 -8.203125 C 3.707031 -8.707031 3.992188 -9.210938 3.921875 -9.75 C 2.699219 -10.183594 2.339844 -10.109375 1.800781 -9.210938 C 0.792969 -7.449219 0 -5.578125 -0.46875 -3.597656 C -0.503906 -3.382812 -0.539062 -3.167969 -0.574219 -2.949219 C -0.792969 -1.1875 -0.0351562 -0.25 1.761719 -0.179688 C 3.023438 -0.109375 4.136719 -0.433594 5.21875 -1.078125 C 7.699219 -2.625 9.824219 -4.570312 11.40625 -7.089844 C 11.730469 -7.59375 11.980469 -8.132812 12.199219 -8.707031 C 12.269531 -8.851562 12.199219 -9.066406 12.199219 -9.390625 Z M 4.605469 -13.132812 C 4.785156 -13.277344 4.929688 -13.421875 5.039062 -13.601562 C 5.289062 -14.140625 5.503906 -14.679688 5.828125 -15.328125 C 4.820312 -15.617188 3.957031 -15.578125 3.128906 -15.113281 C 2.484375 -14.753906 2.265625 -13.925781 2.589844 -13.421875 C 3.023438 -12.773438 3.992188 -12.628906 4.605469 -13.132812 Z M 4.605469 -13.132812 "/></g></g></g><g fill="#6d4d3a" fill-opacity="0.1882"><g transform="translate(61.479349, 38.233776)"><g><path d="M 14.140625 -8.238281 C 13.457031 -7.773438 12.808594 -7.269531 12.199219 -6.726562 C 10.148438 -4.820312 8.132812 -2.878906 6.082031 -0.972656 C 5.683594 -0.613281 5.289062 -0.25 4.820312 0.179688 C 3.957031 -1.078125 3.417969 -2.375 3.058594 -3.742188 C 2.734375 -4.929688 2.914062 -6.042969 3.453125 -7.089844 C 4.210938 -8.597656 5.398438 -9.714844 6.980469 -10.398438 C 7.230469 -10.507812 7.554688 -10.398438 7.953125 -10.398438 C 7.808594 -9.570312 7.699219 -8.886719 7.519531 -7.878906 C 8.023438 -8.023438 8.457031 -8.023438 8.597656 -8.203125 C 9.066406 -8.742188 9.464844 -9.320312 9.785156 -9.964844 C 10.039062 -10.507812 9.824219 -11.046875 9.246094 -11.332031 C 8.921875 -11.476562 8.527344 -11.585938 8.167969 -11.621094 C 5.21875 -11.875 1.726562 -9.605469 0.753906 -6.835938 C 0.433594 -5.902344 0.25 -4.894531 0.613281 -3.921875 C 0.933594 -2.914062 1.332031 -1.871094 1.800781 -0.898438 C 2.230469 0.0351562 2.734375 0.933594 3.203125 1.871094 C 2.769531 2.339844 2.410156 2.734375 2.050781 3.167969 C 1.332031 4.101562 0.574219 5.039062 -0.109375 6.042969 C -0.394531 6.476562 -0.539062 7.050781 -0.613281 7.59375 C -0.71875 8.347656 -0.289062 8.78125 0.539062 8.886719 C 1.1875 8.960938 1.835938 8.816406 2.445312 8.492188 C 3.347656 7.988281 4.171875 7.375 4.855469 6.546875 C 5.648438 5.648438 6.082031 4.605469 5.902344 3.382812 C 5.863281 3.128906 5.828125 2.84375 5.792969 2.554688 C 6.226562 2.085938 6.621094 1.65625 7.015625 1.222656 C 9.570312 -1.367188 12.125 -3.921875 14.644531 -6.511719 C 15.039062 -6.910156 15.4375 -7.269531 15.796875 -7.699219 C 15.941406 -7.878906 15.976562 -8.132812 16.082031 -8.382812 C 15.292969 -8.78125 14.679688 -8.671875 14.140625 -8.238281 Z M 3.707031 6.1875 C 3.273438 6.945312 2.664062 7.519531 1.691406 7.664062 C 2.195312 6.441406 2.988281 5.503906 3.992188 4.535156 C 4.28125 5.289062 3.992188 5.757812 3.707031 6.1875 Z M 3.707031 6.1875 "/></g></g></g><g fill="#6d4d3a" fill-opacity="0.1882"><g transform="translate(74.180593, 38.233776)"><g><path d="M 11.765625 -6.65625 C 11.980469 -7.808594 12.160156 -8.921875 12.304688 -10.074219 C 12.378906 -10.6875 12.054688 -10.972656 11.441406 -11.011719 C 10.972656 -11.046875 10.578125 -10.9375 10.21875 -10.613281 C 10.003906 -10.398438 9.75 -10.183594 9.464844 -9.894531 C 9.425781 -10.148438 9.355469 -10.289062 9.390625 -10.433594 C 9.5 -11.695312 9.140625 -12.199219 7.953125 -12.269531 C 7.410156 -12.304688 6.835938 -12.234375 6.367188 -12.019531 C 5.683594 -11.695312 5 -11.296875 4.425781 -10.792969 C 2.230469 -8.707031 0.648438 -6.226562 -0.324219 -3.382812 C -0.503906 -2.878906 -0.574219 -2.304688 -0.613281 -1.761719 C -0.648438 -0.71875 -0.214844 -0.289062 0.863281 -0.25 C 1.65625 -0.214844 2.410156 -0.503906 3.023438 -0.933594 C 3.851562 -1.546875 4.675781 -2.195312 5.433594 -2.914062 C 6.476562 -3.957031 7.449219 -5.074219 8.457031 -6.152344 C 8.742188 -6.476562 9.066406 -6.765625 9.5 -7.195312 C 9.535156 -6.765625 9.570312 -6.585938 9.570312 -6.367188 C 9.425781 -5.179688 9.28125 -3.992188 9.140625 -2.804688 C 8.996094 -1.296875 9.101562 0.179688 9.390625 1.617188 C 9.714844 3.023438 10.21875 3.347656 11.765625 3.273438 C 11.082031 2.84375 10.867188 2.195312 10.867188 1.476562 C 10.902344 0.0351562 10.902344 -1.367188 11.046875 -2.804688 C 11.191406 -4.101562 11.550781 -5.359375 11.765625 -6.65625 Z M 1.332031 -1.4375 C 1.222656 -2.769531 1.800781 -3.707031 2.265625 -4.675781 C 3.777344 -7.59375 5.578125 -9.824219 7.269531 -10.867188 C 7.953125 -9.929688 7.050781 -8.78125 7.808594 -7.988281 C 6.296875 -5.359375 3.417969 -2.410156 1.332031 -1.4375 Z M 1.332031 -1.4375 "/></g></g></g><g fill="#6d4d3a" fill-opacity="0.1882"><g transform="translate(87.961263, 38.233776)"><g><path d="M 12.449219 -3.992188 C 11.261719 -3.273438 10.253906 -2.230469 8.78125 -1.546875 C 8.960938 -2.265625 9.066406 -2.804688 9.246094 -3.273438 C 9.824219 -4.820312 10.433594 -6.367188 10.972656 -7.914062 C 11.191406 -8.457031 11.371094 -9.03125 11.476562 -9.644531 C 11.621094 -10.613281 11.191406 -11.011719 10.183594 -11.046875 C 9.535156 -11.082031 8.960938 -10.9375 8.457031 -10.578125 C 7.59375 -9.929688 6.691406 -9.28125 5.863281 -8.5625 C 4.894531 -7.699219 3.992188 -6.726562 3.058594 -5.792969 C 2.878906 -5.648438 2.664062 -5.542969 2.230469 -5.21875 C 2.589844 -6.441406 2.914062 -7.375 3.128906 -8.3125 C 3.382812 -9.355469 3.058594 -9.714844 1.980469 -9.679688 C 1.761719 -9.679688 1.582031 -9.535156 1.332031 -9.464844 C 0.828125 -7.773438 0.289062 -6.082031 -0.144531 -4.390625 C -0.433594 -3.203125 0.144531 -2.589844 1.367188 -2.878906 C 1.761719 -2.949219 2.160156 -3.203125 2.519531 -3.453125 C 3.09375 -3.921875 3.671875 -4.460938 4.210938 -4.964844 C 5.144531 -5.902344 6.082031 -6.835938 7.015625 -7.734375 C 7.628906 -8.3125 8.277344 -8.78125 8.921875 -9.320312 C 9.210938 -8.671875 8.851562 -8.238281 8.707031 -7.808594 C 8.167969 -6.152344 7.554688 -4.496094 7.015625 -2.84375 C 6.835938 -2.265625 6.800781 -1.65625 6.765625 -1.042969 C 6.765625 -0.46875 7.089844 -0.144531 7.664062 -0.0703125 C 8.09375 -0.0351562 8.5625 -0.0351562 8.960938 -0.179688 C 9.5 -0.394531 10.039062 -0.683594 10.507812 -1.078125 C 12.269531 -2.519531 14.03125 -3.992188 15.796875 -5.46875 C 15.902344 -5.578125 15.976562 -5.722656 16.191406 -6.007812 C 14.535156 -5.828125 13.566406 -4.75 12.449219 -3.992188 Z M 12.449219 -3.992188 "/></g></g></g><g fill="#6d4d3a" fill-opacity="0.1882"><g transform="translate(102.389587, 38.233776)"><g><path d="M 14.140625 -8.238281 C 13.457031 -7.773438 12.808594 -7.269531 12.199219 -6.726562 C 10.148438 -4.820312 8.132812 -2.878906 6.082031 -0.972656 C 5.683594 -0.613281 5.289062 -0.25 4.820312 0.179688 C 3.957031 -1.078125 3.417969 -2.375 3.058594 -3.742188 C 2.734375 -4.929688 2.914062 -6.042969 3.453125 -7.089844 C 4.210938 -8.597656 5.398438 -9.714844 6.980469 -10.398438 C 7.230469 -10.507812 7.554688 -10.398438 7.953125 -10.398438 C 7.808594 -9.570312 7.699219 -8.886719 7.519531 -7.878906 C 8.023438 -8.023438 8.457031 -8.023438 8.597656 -8.203125 C 9.066406 -8.742188 9.464844 -9.320312 9.785156 -9.964844 C 10.039062 -10.507812 9.824219 -11.046875 9.246094 -11.332031 C 8.921875 -11.476562 8.527344 -11.585938 8.167969 -11.621094 C 5.21875 -11.875 1.726562 -9.605469 0.753906 -6.835938 C 0.433594 -5.902344 0.25 -4.894531 0.613281 -3.921875 C 0.933594 -2.914062 1.332031 -1.871094 1.800781 -0.898438 C 2.230469 0.0351562 2.734375 0.933594 3.203125 1.871094 C 2.769531 2.339844 2.410156 2.734375 2.050781 3.167969 C 1.332031 4.101562 0.574219 5.039062 -0.109375 6.042969 C -0.394531 6.476562 -0.539062 7.050781 -0.613281 7.59375 C -0.71875 8.347656 -0.289062 8.78125 0.539062 8.886719 C 1.1875 8.960938 1.835938 8.816406 2.445312 8.492188 C 3.347656 7.988281 4.171875 7.375 4.855469 6.546875 C 5.648438 5.648438 6.082031 4.605469 5.902344 3.382812 C 5.863281 3.128906 5.828125 2.84375 5.792969 2.554688 C 6.226562 2.085938 6.621094 1.65625 7.015625 1.222656 C 9.570312 -1.367188 12.125 -3.921875 14.644531 -6.511719 C 15.039062 -6.910156 15.4375 -7.269531 15.796875 -7.699219 C 15.941406 -7.878906 15.976562 -8.132812 16.082031 -8.382812 C 15.292969 -8.78125 14.679688 -8.671875 14.140625 -8.238281 Z M 3.707031 6.1875 C 3.273438 6.945312 2.664062 7.519531 1.691406 7.664062 C 2.195312 6.441406 2.988281 5.503906 3.992188 4.535156 C 4.28125 5.289062 3.992188 5.757812 3.707031 6.1875 Z M 3.707031 6.1875 "/></g></g></g><g fill="#6d4d3a" fill-opacity="0.1882"><g transform="translate(115.090831, 38.233776)"><g/></g></g><g fill="#6d4d3a" fill-opacity="1"><g transform="translate(0, 39.981422)"><g><path d="M 26.769531 -11.730469 C 27.128906 -14.714844 27.488281 -17.703125 27.847656 -20.726562 C 28.316406 -24.144531 28.820312 -27.5625 29.253906 -30.980469 C 29.359375 -31.664062 29.394531 -32.382812 29.394531 -33.101562 C 29.394531 -33.929688 29 -34.289062 28.171875 -34.324219 C 27.488281 -34.363281 26.878906 -34.109375 26.410156 -33.605469 C 25.726562 -32.886719 25.042969 -32.167969 24.429688 -31.410156 C 20.257812 -26.15625 16.695312 -20.507812 13.78125 -14.464844 C 12.484375 -11.800781 11.226562 -9.101562 9.964844 -6.441406 C 9.644531 -5.757812 9.246094 -5.289062 8.492188 -5 C 7.484375 -4.605469 6.476562 -4.136719 5.503906 -3.632812 C 4.425781 -3.09375 3.382812 -2.484375 2.375 -1.871094 C 2.050781 -1.691406 1.691406 -1.4375 1.800781 -0.933594 C 2.375 -0.394531 3.058594 -0.359375 3.777344 -0.613281 C 4.929688 -1.007812 6.007812 -1.476562 7.160156 -1.90625 C 7.375 -1.980469 7.628906 -1.941406 7.988281 -2.015625 C 7.773438 -1.367188 7.59375 -0.933594 7.410156 -0.46875 C 6.800781 1.402344 6.117188 3.273438 5.578125 5.144531 C 5.289062 6.082031 5.179688 7.089844 5.039062 8.058594 C 5 8.3125 5.039062 8.636719 5.179688 8.851562 C 5.289062 9.03125 5.578125 9.210938 5.828125 9.210938 C 5.972656 9.246094 6.226562 9.03125 6.296875 8.886719 C 6.511719 8.203125 6.585938 7.484375 6.871094 6.800781 C 8.058594 3.707031 9.320312 0.613281 10.542969 -2.519531 C 10.832031 -3.238281 11.296875 -3.632812 12.019531 -3.886719 C 15.4375 -5.109375 18.816406 -6.367188 22.234375 -7.59375 C 22.558594 -7.699219 22.957031 -7.734375 23.386719 -7.84375 C 23.386719 -7.269531 23.421875 -6.765625 23.386719 -6.296875 C 23.242188 -4.820312 23.136719 -3.347656 22.992188 -1.871094 C 22.558594 2.445312 22.308594 6.765625 22.453125 11.082031 C 22.488281 12.339844 22.632812 13.601562 22.777344 14.859375 C 22.847656 15.398438 22.992188 15.941406 23.207031 16.441406 C 23.460938 17.089844 23.964844 17.523438 24.683594 17.558594 C 25.4375 17.628906 26.050781 17.378906 26.480469 16.550781 C 26.015625 16.441406 25.617188 16.335938 25.1875 16.191406 C 25.113281 15.832031 25.042969 15.542969 25.007812 15.21875 C 24.71875 12.953125 24.71875 10.722656 24.898438 8.492188 C 25.292969 3.777344 25.691406 -0.898438 26.121094 -5.613281 C 26.195312 -6.691406 26.375 -7.773438 26.519531 -8.851562 C 29.214844 -9.605469 31.734375 -10.398438 34.433594 -10.613281 C 34.433594 -10.867188 34.433594 -11.011719 34.398438 -11.191406 C 34.363281 -11.332031 34.253906 -11.476562 34.144531 -11.621094 C 31.699219 -12.054688 29.394531 -11.226562 26.839844 -10.902344 C 26.804688 -11.296875 26.769531 -11.515625 26.769531 -11.730469 Z M 26.914062 -31.195312 C 26.804688 -29.359375 26.375 -27.707031 26.085938 -26.015625 C 25.796875 -24.25 25.511719 -22.453125 25.257812 -20.6875 C 24.96875 -18.925781 24.71875 -17.199219 24.46875 -15.472656 C 24.214844 -13.746094 24.035156 -12.019531 23.785156 -10.148438 C 21.984375 -9.535156 20.113281 -9.140625 18.277344 -8.5625 C 16.480469 -7.988281 14.679688 -7.410156 12.808594 -6.835938 C 13.925781 -11.226562 23.386719 -27.5625 26.914062 -31.195312 Z M 26.914062 -31.195312 "/></g></g></g><g fill="#6d4d3a" fill-opacity="1"><g transform="translate(33.893982, 39.981422)"><g><path d="M 10.542969 -10.183594 C 10.289062 -11.117188 9.714844 -11.550781 8.742188 -11.476562 C 7.988281 -11.40625 7.375 -11.117188 6.871094 -10.542969 C 5.972656 -9.464844 5.074219 -8.347656 4.136719 -7.269531 C 3.921875 -6.980469 3.671875 -6.691406 3.203125 -6.1875 C 3.347656 -8.167969 4.28125 -9.644531 4.390625 -11.40625 C 3.671875 -11.65625 3.238281 -11.550781 2.949219 -11.046875 C 2.734375 -10.722656 2.554688 -10.363281 2.410156 -10.039062 C 1.296875 -7.410156 0.179688 -4.785156 -0.933594 -2.160156 C -1.117188 -1.726562 -1.257812 -1.257812 -1.367188 -0.792969 C -1.546875 -0.0351562 -1.1875 0.394531 -0.394531 0.394531 C 0.144531 0.394531 0.683594 0.25 1.078125 -0.179688 C 1.546875 -0.613281 2.015625 -1.078125 2.410156 -1.617188 C 3.238281 -2.664062 3.957031 -3.742188 4.75 -4.785156 C 5.722656 -6.082031 6.726562 -7.375 7.773438 -8.671875 C 7.988281 -8.960938 8.277344 -9.175781 8.671875 -9.5 C 8.851562 -8.960938 8.996094 -8.5625 9.101562 -8.167969 C 9.210938 -7.84375 9.246094 -7.519531 9.425781 -7.230469 C 9.535156 -7.050781 9.824219 -6.871094 10.039062 -6.835938 C 10.148438 -6.835938 10.398438 -7.089844 10.46875 -7.269531 C 10.757812 -8.238281 10.757812 -9.210938 10.542969 -10.183594 Z M 10.542969 -10.183594 "/></g></g></g><g fill="#6d4d3a" fill-opacity="1"><g transform="translate(46.487286, 39.981422)"><g><path d="M 18.890625 -23.027344 C 17.667969 -23.136719 16.480469 -23.242188 15.253906 -23.171875 C 12.59375 -23.101562 9.894531 -22.917969 7.230469 -22.777344 C 6.871094 -22.777344 6.511719 -22.847656 6.082031 -22.882812 C 6.332031 -23.855469 6.546875 -24.71875 6.765625 -25.546875 C 6.980469 -26.375 7.484375 -27.128906 7.449219 -28.066406 C 6.585938 -28.425781 5.972656 -28.136719 5.613281 -27.453125 C 5.179688 -26.625 4.820312 -25.761719 4.496094 -24.898438 C 4.246094 -24.144531 4.03125 -23.351562 3.777344 -22.523438 C 2.734375 -22.378906 1.761719 -22.273438 0.792969 -22.128906 C -0.863281 -21.914062 -2.484375 -21.695312 -4.101562 -21.410156 C -4.714844 -21.300781 -5.398438 -21.265625 -5.828125 -20.617188 C -4.964844 -20.148438 -4.964844 -20.148438 -4.460938 -20.222656 C -2.160156 -20.507812 0.109375 -20.796875 2.375 -21.085938 C 2.664062 -21.121094 2.988281 -21.011719 3.347656 -20.976562 C 3.238281 -20.4375 3.128906 -20.003906 3.023438 -19.609375 C 1.691406 -14.464844 0.433594 -9.28125 -0.613281 -4.101562 C -1.402344 -0.289062 -2.160156 3.527344 -2.589844 7.410156 C -2.625 7.953125 -2.625 8.492188 -2.589844 9.03125 C -2.554688 9.28125 -2.410156 9.570312 -1.941406 9.5 C -1.835938 9.066406 -1.691406 8.636719 -1.582031 8.167969 C -1.402344 7.195312 -1.222656 6.226562 -1.042969 5.253906 C 0.828125 -3.417969 3.308594 -11.945312 5.46875 -20.546875 C 5.542969 -20.867188 5.722656 -21.121094 5.863281 -21.410156 C 10.507812 -21.839844 15.039062 -22.378906 19.679688 -22.667969 C 19.429688 -22.8125 19.140625 -23.027344 18.890625 -23.027344 Z M 18.890625 -23.027344 "/></g></g></g><g fill="#6d4d3a" fill-opacity="1"><g transform="translate(52.424128, 39.981422)"><g><path d="M 12.199219 -9.390625 C 11.476562 -9.101562 11.296875 -8.5625 11.011719 -8.132812 C 9.246094 -5.792969 7.160156 -3.8125 4.640625 -2.265625 C 3.957031 -1.835938 3.273438 -1.402344 2.304688 -1.332031 C 2.160156 -1.691406 1.980469 -2.015625 1.941406 -2.375 C 1.941406 -2.804688 2.015625 -3.238281 2.121094 -3.671875 C 2.589844 -5.179688 3.058594 -6.691406 3.5625 -8.203125 C 3.707031 -8.707031 3.992188 -9.210938 3.921875 -9.75 C 2.699219 -10.183594 2.339844 -10.109375 1.800781 -9.210938 C 0.792969 -7.449219 0 -5.578125 -0.46875 -3.597656 C -0.503906 -3.382812 -0.539062 -3.167969 -0.574219 -2.949219 C -0.792969 -1.1875 -0.0351562 -0.25 1.761719 -0.179688 C 3.023438 -0.109375 4.136719 -0.433594 5.21875 -1.078125 C 7.699219 -2.625 9.824219 -4.570312 11.40625 -7.089844 C 11.730469 -7.59375 11.980469 -8.132812 12.199219 -8.707031 C 12.269531 -8.851562 12.199219 -9.066406 12.199219 -9.390625 Z M 4.605469 -13.132812 C 4.785156 -13.277344 4.929688 -13.421875 5.039062 -13.601562 C 5.289062 -14.140625 5.503906 -14.679688 5.828125 -15.328125 C 4.820312 -15.617188 3.957031 -15.578125 3.128906 -15.113281 C 2.484375 -14.753906 2.265625 -13.925781 2.589844 -13.421875 C 3.023438 -12.773438 3.992188 -12.628906 4.605469 -13.132812 Z M 4.605469 -13.132812 "/></g></g></g><g fill="#6d4d3a" fill-opacity="1"><g transform="translate(62.894564, 39.981422)"><g><path d="M 14.140625 -8.238281 C 13.457031 -7.773438 12.808594 -7.269531 12.199219 -6.726562 C 10.148438 -4.820312 8.132812 -2.878906 6.082031 -0.972656 C 5.683594 -0.613281 5.289062 -0.25 4.820312 0.179688 C 3.957031 -1.078125 3.417969 -2.375 3.058594 -3.742188 C 2.734375 -4.929688 2.914062 -6.042969 3.453125 -7.089844 C 4.210938 -8.597656 5.398438 -9.714844 6.980469 -10.398438 C 7.230469 -10.507812 7.554688 -10.398438 7.953125 -10.398438 C 7.808594 -9.570312 7.699219 -8.886719 7.519531 -7.878906 C 8.023438 -8.023438 8.457031 -8.023438 8.597656 -8.203125 C 9.066406 -8.742188 9.464844 -9.320312 9.785156 -9.964844 C 10.039062 -10.507812 9.824219 -11.046875 9.246094 -11.332031 C 8.921875 -11.476562 8.527344 -11.585938 8.167969 -11.621094 C 5.21875 -11.875 1.726562 -9.605469 0.753906 -6.835938 C 0.433594 -5.902344 0.25 -4.894531 0.613281 -3.921875 C 0.933594 -2.914062 1.332031 -1.871094 1.800781 -0.898438 C 2.230469 0.0351562 2.734375 0.933594 3.203125 1.871094 C 2.769531 2.339844 2.410156 2.734375 2.050781 3.167969 C 1.332031 4.101562 0.574219 5.039062 -0.109375 6.042969 C -0.394531 6.476562 -0.539062 7.050781 -0.613281 7.59375 C -0.71875 8.347656 -0.289062 8.78125 0.539062 8.886719 C 1.1875 8.960938 1.835938 8.816406 2.445312 8.492188 C 3.347656 7.988281 4.171875 7.375 4.855469 6.546875 C 5.648438 5.648438 6.082031 4.605469 5.902344 3.382812 C 5.863281 3.128906 5.828125 2.84375 5.792969 2.554688 C 6.226562 2.085938 6.621094 1.65625 7.015625 1.222656 C 9.570312 -1.367188 12.125 -3.921875 14.644531 -6.511719 C 15.039062 -6.910156 15.4375 -7.269531 15.796875 -7.699219 C 15.941406 -7.878906 15.976562 -8.132812 16.082031 -8.382812 C 15.292969 -8.78125 14.679688 -8.671875 14.140625 -8.238281 Z M 3.707031 6.1875 C 3.273438 6.945312 2.664062 7.519531 1.691406 7.664062 C 2.195312 6.441406 2.988281 5.503906 3.992188 4.535156 C 4.28125 5.289062 3.992188 5.757812 3.707031 6.1875 Z M 3.707031 6.1875 "/></g></g></g><g fill="#6d4d3a" fill-opacity="1"><g transform="translate(75.595809, 39.981422)"><g><path d="M 11.765625 -6.65625 C 11.980469 -7.808594 12.160156 -8.921875 12.304688 -10.074219 C 12.378906 -10.6875 12.054688 -10.972656 11.441406 -11.011719 C 10.972656 -11.046875 10.578125 -10.9375 10.21875 -10.613281 C 10.003906 -10.398438 9.75 -10.183594 9.464844 -9.894531 C 9.425781 -10.148438 9.355469 -10.289062 9.390625 -10.433594 C 9.5 -11.695312 9.140625 -12.199219 7.953125 -12.269531 C 7.410156 -12.304688 6.835938 -12.234375 6.367188 -12.019531 C 5.683594 -11.695312 5 -11.296875 4.425781 -10.792969 C 2.230469 -8.707031 0.648438 -6.226562 -0.324219 -3.382812 C -0.503906 -2.878906 -0.574219 -2.304688 -0.613281 -1.761719 C -0.648438 -0.71875 -0.214844 -0.289062 0.863281 -0.25 C 1.65625 -0.214844 2.410156 -0.503906 3.023438 -0.933594 C 3.851562 -1.546875 4.675781 -2.195312 5.433594 -2.914062 C 6.476562 -3.957031 7.449219 -5.074219 8.457031 -6.152344 C 8.742188 -6.476562 9.066406 -6.765625 9.5 -7.195312 C 9.535156 -6.765625 9.570312 -6.585938 9.570312 -6.367188 C 9.425781 -5.179688 9.28125 -3.992188 9.140625 -2.804688 C 8.996094 -1.296875 9.101562 0.179688 9.390625 1.617188 C 9.714844 3.023438 10.21875 3.347656 11.765625 3.273438 C 11.082031 2.84375 10.867188 2.195312 10.867188 1.476562 C 10.902344 0.0351562 10.902344 -1.367188 11.046875 -2.804688 C 11.191406 -4.101562 11.550781 -5.359375 11.765625 -6.65625 Z M 1.332031 -1.4375 C 1.222656 -2.769531 1.800781 -3.707031 2.265625 -4.675781 C 3.777344 -7.59375 5.578125 -9.824219 7.269531 -10.867188 C 7.953125 -9.929688 7.050781 -8.78125 7.808594 -7.988281 C 6.296875 -5.359375 3.417969 -2.410156 1.332031 -1.4375 Z M 1.332031 -1.4375 "/></g></g></g><g fill="#6d4d3a" fill-opacity="1"><g transform="translate(89.376479, 39.981422)"><g><path d="M 12.449219 -3.992188 C 11.261719 -3.273438 10.253906 -2.230469 8.78125 -1.546875 C 8.960938 -2.265625 9.066406 -2.804688 9.246094 -3.273438 C 9.824219 -4.820312 10.433594 -6.367188 10.972656 -7.914062 C 11.191406 -8.457031 11.371094 -9.03125 11.476562 -9.644531 C 11.621094 -10.613281 11.191406 -11.011719 10.183594 -11.046875 C 9.535156 -11.082031 8.960938 -10.9375 8.457031 -10.578125 C 7.59375 -9.929688 6.691406 -9.28125 5.863281 -8.5625 C 4.894531 -7.699219 3.992188 -6.726562 3.058594 -5.792969 C 2.878906 -5.648438 2.664062 -5.542969 2.230469 -5.21875 C 2.589844 -6.441406 2.914062 -7.375 3.128906 -8.3125 C 3.382812 -9.355469 3.058594 -9.714844 1.980469 -9.679688 C 1.761719 -9.679688 1.582031 -9.535156 1.332031 -9.464844 C 0.828125 -7.773438 0.289062 -6.082031 -0.144531 -4.390625 C -0.433594 -3.203125 0.144531 -2.589844 1.367188 -2.878906 C 1.761719 -2.949219 2.160156 -3.203125 2.519531 -3.453125 C 3.09375 -3.921875 3.671875 -4.460938 4.210938 -4.964844 C 5.144531 -5.902344 6.082031 -6.835938 7.015625 -7.734375 C 7.628906 -8.3125 8.277344 -8.78125 8.921875 -9.320312 C 9.210938 -8.671875 8.851562 -8.238281 8.707031 -7.808594 C 8.167969 -6.152344 7.554688 -4.496094 7.015625 -2.84375 C 6.835938 -2.265625 6.800781 -1.65625 6.765625 -1.042969 C 6.765625 -0.46875 7.089844 -0.144531 7.664062 -0.0703125 C 8.09375 -0.0351562 8.5625 -0.0351562 8.960938 -0.179688 C 9.5 -0.394531 10.039062 -0.683594 10.507812 -1.078125 C 12.269531 -2.519531 14.03125 -3.992188 15.796875 -5.46875 C 15.902344 -5.578125 15.976562 -5.722656 16.191406 -6.007812 C 14.535156 -5.828125 13.566406 -4.75 12.449219 -3.992188 Z M 12.449219 -3.992188 "/></g></g></g><g fill="#6d4d3a" fill-opacity="1"><g transform="translate(103.804802, 39.981422)"><g><path d="M 14.140625 -8.238281 C 13.457031 -7.773438 12.808594 -7.269531 12.199219 -6.726562 C 10.148438 -4.820312 8.132812 -2.878906 6.082031 -0.972656 C 5.683594 -0.613281 5.289062 -0.25 4.820312 0.179688 C 3.957031 -1.078125 3.417969 -2.375 3.058594 -3.742188 C 2.734375 -4.929688 2.914062 -6.042969 3.453125 -7.089844 C 4.210938 -8.597656 5.398438 -9.714844 6.980469 -10.398438 C 7.230469 -10.507812 7.554688 -10.398438 7.953125 -10.398438 C 7.808594 -9.570312 7.699219 -8.886719 7.519531 -7.878906 C 8.023438 -8.023438 8.457031 -8.023438 8.597656 -8.203125 C 9.066406 -8.742188 9.464844 -9.320312 9.785156 -9.964844 C 10.039062 -10.507812 9.824219 -11.046875 9.246094 -11.332031 C 8.921875 -11.476562 8.527344 -11.585938 8.167969 -11.621094 C 5.21875 -11.875 1.726562 -9.605469 0.753906 -6.835938 C 0.433594 -5.902344 0.25 -4.894531 0.613281 -3.921875 C 0.933594 -2.914062 1.332031 -1.871094 1.800781 -0.898438 C 2.230469 0.0351562 2.734375 0.933594 3.203125 1.871094 C 2.769531 2.339844 2.410156 2.734375 2.050781 3.167969 C 1.332031 4.101562 0.574219 5.039062 -0.109375 6.042969 C -0.394531 6.476562 -0.539062 7.050781 -0.613281 7.59375 C -0.71875 8.347656 -0.289062 8.78125 0.539062 8.886719 C 1.1875 8.960938 1.835938 8.816406 2.445312 8.492188 C 3.347656 7.988281 4.171875 7.375 4.855469 6.546875 C 5.648438 5.648438 6.082031 4.605469 5.902344 3.382812 C 5.863281 3.128906 5.828125 2.84375 5.792969 2.554688 C 6.226562 2.085938 6.621094 1.65625 7.015625 1.222656 C 9.570312 -1.367188 12.125 -3.921875 14.644531 -6.511719 C 15.039062 -6.910156 15.4375 -7.269531 15.796875 -7.699219 C 15.941406 -7.878906 15.976562 -8.132812 16.082031 -8.382812 C 15.292969 -8.78125 14.679688 -8.671875 14.140625 -8.238281 Z M 3.707031 6.1875 C 3.273438 6.945312 2.664062 7.519531 1.691406 7.664062 C 2.195312 6.441406 2.988281 5.503906 3.992188 4.535156 C 4.28125 5.289062 3.992188 5.757812 3.707031 6.1875 Z M 3.707031 6.1875 "/></g></g></g><g fill="#6d4d3a" fill-opacity="1"><g transform="translate(116.506047, 39.981422)"><g/></g></g><g fill="#6d4d3a" fill-opacity="0.1882"><g transform="translate(126.391573, 38.233776)"><g><path d="M 8.5625 -3.671875 C 7.878906 -3.453125 7.195312 -3.238281 6.441406 -3.527344 C 6.65625 -4.066406 6.835938 -4.570312 7.015625 -5.039062 C 7.449219 -6.226562 7.808594 -7.410156 7.84375 -8.671875 C 7.914062 -10.289062 7.304688 -11.226562 6.152344 -11.371094 C 5.828125 -11.40625 5.503906 -11.371094 5.179688 -11.296875 C 4.171875 -11.082031 3.308594 -10.433594 2.519531 -9.570312 C 1.691406 -8.671875 1.078125 -7.628906 1.117188 -6.226562 C 0.71875 -5.578125 0.324219 -4.964844 -0.0351562 -4.355469 C -0.433594 -3.5625 -0.828125 -2.734375 -0.972656 -1.800781 C -1.152344 -0.503906 -0.828125 0.359375 0.0703125 0.648438 C 0.613281 0.828125 1.222656 0.828125 1.761719 0.71875 C 2.625 0.574219 3.417969 0 4.136719 -0.71875 C 4.714844 -1.257812 5.289062 -1.835938 5.9375 -2.484375 C 8.347656 -2.554688 8.636719 -2.625 9.535156 -3.527344 C 8.996094 -3.851562 8.996094 -3.851562 8.5625 -3.671875 Z M 1.117188 -0.0703125 C 0.753906 -0.0351562 0.46875 -0.25 0.46875 -0.753906 C 0.433594 -1.222656 0.46875 -1.726562 0.574219 -2.195312 C 0.828125 -3.128906 1.152344 -4.03125 1.726562 -4.894531 C 2.230469 -4.460938 2.589844 -4.101562 2.988281 -3.777344 C 3.382812 -3.488281 3.8125 -3.203125 4.246094 -2.914062 C 3.632812 -1.65625 2.050781 -0.25 1.117188 -0.0703125 Z M 5.074219 -4.03125 C 4.210938 -4.460938 3.671875 -5.074219 3.417969 -6.1875 C 3.273438 -6.835938 3.273438 -7.339844 3.5625 -7.914062 C 4.171875 -9.066406 4.929688 -10.003906 5.9375 -10.398438 C 6.40625 -10.148438 6.476562 -9.570312 6.476562 -9.03125 C 6.476562 -7.195312 5.972656 -5.542969 5.074219 -4.03125 Z M 5.074219 -4.03125 "/></g></g></g><g fill="#6d4d3a" fill-opacity="0.1882"><g transform="translate(134.955023, 38.233776)"><g><path d="M 9.824219 -7.160156 C 8.5625 -7.375 7.304688 -7.410156 6.042969 -7.304688 C 4.929688 -7.195312 3.777344 -7.089844 2.375 -6.980469 C 3.453125 -9.5 4.570312 -11.730469 5.613281 -13.996094 C 6.65625 -16.300781 7.699219 -18.636719 8.707031 -21.265625 C 8.203125 -21.121094 7.84375 -21.121094 7.664062 -20.941406 C 7.160156 -20.363281 6.65625 -19.789062 6.296875 -19.105469 C 4.28125 -15.4375 2.265625 -11.695312 0.324219 -7.953125 C -0.179688 -6.980469 -0.71875 -6.261719 -1.871094 -6.042969 C -2.484375 -5.902344 -3.09375 -5.542969 -3.632812 -5.179688 C -4.246094 -4.785156 -4.246094 -4.171875 -3.707031 -3.671875 C -3.308594 -3.273438 -2.84375 -2.988281 -2.375 -2.625 C -2.589844 -2.195312 -2.734375 -1.800781 -2.914062 -1.402344 C -3.5625 0.0703125 -4.246094 1.476562 -4.894531 2.949219 C -6.296875 6.261719 -7.59375 9.644531 -8.457031 13.167969 C -8.816406 14.609375 -9.101562 16.046875 -8.996094 17.558594 C -8.886719 18.925781 -8.132812 19.5 -6.765625 19.320312 C -6.152344 19.25 -5.613281 18.996094 -5.21875 18.492188 C -4.75 17.953125 -4.28125 17.414062 -3.886719 16.839844 C -1.511719 13.421875 0.214844 9.714844 1.402344 5.757812 C 1.691406 4.820312 1.90625 3.851562 2.015625 2.878906 C 2.304688 0.898438 2.050781 -0.972656 0.71875 -2.554688 C 0.613281 -2.664062 0.574219 -2.84375 0.503906 -3.058594 C 0.792969 -3.707031 1.117188 -4.390625 1.4375 -5.039062 C 1.65625 -5.144531 1.800781 -5.21875 1.980469 -5.253906 C 4.535156 -5.722656 7.089844 -6.441406 9.75 -5.972656 C 10.183594 -5.902344 10.613281 -5.9375 10.867188 -6.476562 C 10.648438 -6.910156 10.253906 -7.050781 9.824219 -7.160156 Z M 0.214844 1.65625 C 0.179688 2.625 0.144531 3.632812 -0.109375 4.605469 C -1.1875 8.707031 -2.804688 12.558594 -5.253906 16.082031 C -5.542969 16.480469 -5.863281 16.839844 -6.152344 17.234375 C -6.226562 17.308594 -6.332031 17.34375 -6.476562 17.378906 C -6.835938 17.308594 -6.765625 16.945312 -6.726562 16.730469 C -6.546875 15.722656 -6.40625 14.679688 -6.152344 13.671875 C -5 9.390625 -3.273438 5.289062 -1.476562 1.222656 C -1.222656 0.648438 -0.933594 0.0703125 -0.539062 -0.792969 C 0.109375 0.144531 0.25 0.898438 0.214844 1.65625 Z M 0.214844 1.65625 "/></g></g></g><g fill="#6d4d3a" fill-opacity="0.1882"><g transform="translate(144.453974, 38.233776)"><g/></g></g><g fill="#6d4d3a" fill-opacity="0.1882"><g transform="translate(155.751972, 38.233776)"><g><path d="M 6.476562 4.355469 C 7.554688 -0.394531 8.597656 -5.179688 9.714844 -9.929688 C 11.332031 -16.839844 13.167969 -23.746094 14.210938 -30.800781 C 14.320312 -31.445312 14.644531 -31.769531 15.253906 -31.878906 C 17.089844 -32.203125 18.925781 -32.5625 20.726562 -32.886719 C 21.371094 -32.996094 22.019531 -32.921875 22.558594 -33.390625 C 22.308594 -33.929688 21.914062 -33.859375 21.550781 -33.894531 C 19.574219 -33.964844 17.59375 -33.859375 15.652344 -33.460938 C 15.113281 -33.355469 14.609375 -33.28125 14.070312 -33.570312 C 13.601562 -33.859375 12.988281 -33.820312 12.703125 -33.425781 C 11.980469 -32.453125 10.9375 -32.417969 9.964844 -32.128906 C 8.921875 -31.808594 7.878906 -31.484375 6.835938 -31.125 C 6.476562 -31.015625 6.117188 -30.835938 6.152344 -30.332031 C 6.441406 -29.9375 6.871094 -29.828125 7.304688 -29.898438 C 8.238281 -30.007812 9.140625 -30.1875 10.039062 -30.367188 C 10.507812 -30.476562 10.9375 -30.691406 11.515625 -30.621094 C 11.476562 -30.332031 11.476562 -30.117188 11.441406 -29.898438 C 10.648438 -26.300781 9.824219 -22.738281 9.066406 -19.140625 C 7.914062 -13.566406 6.800781 -7.988281 5.757812 -2.375 C 5.21875 0.359375 4.929688 3.128906 4.496094 6.042969 C 4.03125 6.117188 3.417969 6.1875 2.84375 6.332031 C 1.90625 6.511719 0.933594 6.726562 0 7.015625 C -0.214844 7.050781 -0.359375 7.339844 -0.613281 7.664062 C -0.179688 7.808594 0.144531 7.988281 0.433594 7.988281 C 1.296875 7.988281 2.195312 8.023438 3.058594 7.878906 C 6.835938 7.230469 10.613281 6.585938 14.390625 5.9375 C 14.824219 5.828125 15.328125 5.757812 15.796875 5.21875 C 14.140625 4.894531 12.628906 5.21875 11.152344 5.289062 C 9.570312 5.359375 8.023438 5.863281 6.261719 5.648438 C 6.332031 5.074219 6.40625 4.714844 6.476562 4.355469 Z M 6.476562 4.355469 "/></g></g></g><g fill="#6d4d3a" fill-opacity="0.1882"><g transform="translate(169.244794, 38.233776)"><g><path d="M 12.449219 -3.992188 C 11.261719 -3.273438 10.253906 -2.230469 8.78125 -1.546875 C 8.960938 -2.265625 9.066406 -2.804688 9.246094 -3.273438 C 9.824219 -4.820312 10.433594 -6.367188 10.972656 -7.914062 C 11.191406 -8.457031 11.371094 -9.03125 11.476562 -9.644531 C 11.621094 -10.613281 11.191406 -11.011719 10.183594 -11.046875 C 9.535156 -11.082031 8.960938 -10.9375 8.457031 -10.578125 C 7.59375 -9.929688 6.691406 -9.28125 5.863281 -8.5625 C 4.894531 -7.699219 3.992188 -6.726562 3.058594 -5.792969 C 2.878906 -5.648438 2.664062 -5.542969 2.230469 -5.21875 C 2.589844 -6.441406 2.914062 -7.375 3.128906 -8.3125 C 3.382812 -9.355469 3.058594 -9.714844 1.980469 -9.679688 C 1.761719 -9.679688 1.582031 -9.535156 1.332031 -9.464844 C 0.828125 -7.773438 0.289062 -6.082031 -0.144531 -4.390625 C -0.433594 -3.203125 0.144531 -2.589844 1.367188 -2.878906 C 1.761719 -2.949219 2.160156 -3.203125 2.519531 -3.453125 C 3.09375 -3.921875 3.671875 -4.460938 4.210938 -4.964844 C 5.144531 -5.902344 6.082031 -6.835938 7.015625 -7.734375 C 7.628906 -8.3125 8.277344 -8.78125 8.921875 -9.320312 C 9.210938 -8.671875 8.851562 -8.238281 8.707031 -7.808594 C 8.167969 -6.152344 7.554688 -4.496094 7.015625 -2.84375 C 6.835938 -2.265625 6.800781 -1.65625 6.765625 -1.042969 C 6.765625 -0.46875 7.089844 -0.144531 7.664062 -0.0703125 C 8.09375 -0.0351562 8.5625 -0.0351562 8.960938 -0.179688 C 9.5 -0.394531 10.039062 -0.683594 10.507812 -1.078125 C 12.269531 -2.519531 14.03125 -3.992188 15.796875 -5.46875 C 15.902344 -5.578125 15.976562 -5.722656 16.191406 -6.007812 C 14.535156 -5.828125 13.566406 -4.75 12.449219 -3.992188 Z M 12.449219 -3.992188 "/></g></g></g><g fill="#6d4d3a" fill-opacity="0.1882"><g transform="translate(183.673117, 38.233776)"><g><path d="M 21.230469 -36.449219 C 19.574219 -36.84375 19.285156 -36.738281 18.78125 -35.511719 C 18.601562 -35.046875 18.421875 -34.578125 18.277344 -34.109375 C 16.875 -29.898438 15.398438 -25.726562 14.03125 -21.480469 C 12.988281 -18.242188 11.585938 -15.148438 9.894531 -12.199219 C 7.988281 -8.921875 5.648438 -6.082031 2.554688 -3.886719 C 2.050781 -3.527344 1.546875 -3.203125 1.007812 -2.949219 C 0.792969 -2.84375 0.539062 -2.84375 0.25 -2.804688 C -0.0351562 -3.5625 0.144531 -4.210938 0.394531 -4.785156 C 1.367188 -6.871094 2.625 -8.707031 4.28125 -10.253906 C 4.605469 -10.542969 5 -10.757812 5.289062 -10.972656 C 5.792969 -10.832031 6.1875 -10.722656 6.546875 -10.578125 C 6.835938 -11.152344 6.65625 -11.441406 6.226562 -11.585938 C 5.324219 -11.835938 4.460938 -11.65625 3.707031 -11.191406 C 1.222656 -9.570312 -0.46875 -7.304688 -1.617188 -4.640625 C -1.691406 -4.570312 -1.691406 -4.460938 -1.726562 -4.355469 C -2.085938 -2.625 -1.402344 -1.980469 0.214844 -1.90625 C 0.46875 -1.871094 0.753906 -1.980469 1.007812 -2.015625 C 1.980469 -2.195312 2.769531 -2.664062 3.488281 -3.238281 C 5.648438 -4.894531 7.554688 -6.765625 9.175781 -8.921875 C 9.464844 -9.355469 9.644531 -9.929688 10.289062 -10.148438 C 10.46875 -9.5 10.148438 -8.921875 10.003906 -8.382812 C 9.140625 -5.253906 8.238281 -2.160156 7.410156 0.972656 C 6.980469 2.664062 6.65625 4.390625 6.332031 6.117188 C 6.226562 6.621094 6.082031 7.160156 6.546875 7.734375 C 6.765625 7.59375 6.980469 7.519531 7.089844 7.375 C 7.269531 6.980469 7.410156 6.585938 7.554688 6.152344 C 10.433594 -4.246094 13.925781 -14.464844 17.488281 -24.648438 C 18.566406 -27.742188 19.644531 -30.871094 20.6875 -33.964844 C 20.941406 -34.757812 21.335938 -35.476562 21.230469 -36.449219 Z M 21.230469 -36.449219 "/></g></g></g><g fill="#6d4d3a" fill-opacity="0.1882"><g transform="translate(197.165939, 38.233776)"><g><path d="M 12.199219 -9.390625 C 11.476562 -9.101562 11.296875 -8.5625 11.011719 -8.132812 C 9.246094 -5.792969 7.160156 -3.8125 4.640625 -2.265625 C 3.957031 -1.835938 3.273438 -1.402344 2.304688 -1.332031 C 2.160156 -1.691406 1.980469 -2.015625 1.941406 -2.375 C 1.941406 -2.804688 2.015625 -3.238281 2.121094 -3.671875 C 2.589844 -5.179688 3.058594 -6.691406 3.5625 -8.203125 C 3.707031 -8.707031 3.992188 -9.210938 3.921875 -9.75 C 2.699219 -10.183594 2.339844 -10.109375 1.800781 -9.210938 C 0.792969 -7.449219 0 -5.578125 -0.46875 -3.597656 C -0.503906 -3.382812 -0.539062 -3.167969 -0.574219 -2.949219 C -0.792969 -1.1875 -0.0351562 -0.25 1.761719 -0.179688 C 3.023438 -0.109375 4.136719 -0.433594 5.21875 -1.078125 C 7.699219 -2.625 9.824219 -4.570312 11.40625 -7.089844 C 11.730469 -7.59375 11.980469 -8.132812 12.199219 -8.707031 C 12.269531 -8.851562 12.199219 -9.066406 12.199219 -9.390625 Z M 4.605469 -13.132812 C 4.785156 -13.277344 4.929688 -13.421875 5.039062 -13.601562 C 5.289062 -14.140625 5.503906 -14.679688 5.828125 -15.328125 C 4.820312 -15.617188 3.957031 -15.578125 3.128906 -15.113281 C 2.484375 -14.753906 2.265625 -13.925781 2.589844 -13.421875 C 3.023438 -12.773438 3.992188 -12.628906 4.605469 -13.132812 Z M 4.605469 -13.132812 "/></g></g></g><g fill="#6d4d3a" fill-opacity="0.1882"><g transform="translate(207.636376, 38.233776)"><g><path d="M 11.765625 -6.65625 C 11.980469 -7.808594 12.160156 -8.921875 12.304688 -10.074219 C 12.378906 -10.6875 12.054688 -10.972656 11.441406 -11.011719 C 10.972656 -11.046875 10.578125 -10.9375 10.21875 -10.613281 C 10.003906 -10.398438 9.75 -10.183594 9.464844 -9.894531 C 9.425781 -10.148438 9.355469 -10.289062 9.390625 -10.433594 C 9.5 -11.695312 9.140625 -12.199219 7.953125 -12.269531 C 7.410156 -12.304688 6.835938 -12.234375 6.367188 -12.019531 C 5.683594 -11.695312 5 -11.296875 4.425781 -10.792969 C 2.230469 -8.707031 0.648438 -6.226562 -0.324219 -3.382812 C -0.503906 -2.878906 -0.574219 -2.304688 -0.613281 -1.761719 C -0.648438 -0.71875 -0.214844 -0.289062 0.863281 -0.25 C 1.65625 -0.214844 2.410156 -0.503906 3.023438 -0.933594 C 3.851562 -1.546875 4.675781 -2.195312 5.433594 -2.914062 C 6.476562 -3.957031 7.449219 -5.074219 8.457031 -6.152344 C 8.742188 -6.476562 9.066406 -6.765625 9.5 -7.195312 C 9.535156 -6.765625 9.570312 -6.585938 9.570312 -6.367188 C 9.425781 -5.179688 9.28125 -3.992188 9.140625 -2.804688 C 8.996094 -1.296875 9.101562 0.179688 9.390625 1.617188 C 9.714844 3.023438 10.21875 3.347656 11.765625 3.273438 C 11.082031 2.84375 10.867188 2.195312 10.867188 1.476562 C 10.902344 0.0351562 10.902344 -1.367188 11.046875 -2.804688 C 11.191406 -4.101562 11.550781 -5.359375 11.765625 -6.65625 Z M 1.332031 -1.4375 C 1.222656 -2.769531 1.800781 -3.707031 2.265625 -4.675781 C 3.777344 -7.59375 5.578125 -9.824219 7.269531 -10.867188 C 7.953125 -9.929688 7.050781 -8.78125 7.808594 -7.988281 C 6.296875 -5.359375 3.417969 -2.410156 1.332031 -1.4375 Z M 1.332031 -1.4375 "/></g></g></g><g fill="#6d4d3a" fill-opacity="1"><g transform="translate(127.806789, 39.981422)"><g><path d="M 8.5625 -3.671875 C 7.878906 -3.453125 7.195312 -3.238281 6.441406 -3.527344 C 6.65625 -4.066406 6.835938 -4.570312 7.015625 -5.039062 C 7.449219 -6.226562 7.808594 -7.410156 7.84375 -8.671875 C 7.914062 -10.289062 7.304688 -11.226562 6.152344 -11.371094 C 5.828125 -11.40625 5.503906 -11.371094 5.179688 -11.296875 C 4.171875 -11.082031 3.308594 -10.433594 2.519531 -9.570312 C 1.691406 -8.671875 1.078125 -7.628906 1.117188 -6.226562 C 0.71875 -5.578125 0.324219 -4.964844 -0.0351562 -4.355469 C -0.433594 -3.5625 -0.828125 -2.734375 -0.972656 -1.800781 C -1.152344 -0.503906 -0.828125 0.359375 0.0703125 0.648438 C 0.613281 0.828125 1.222656 0.828125 1.761719 0.71875 C 2.625 0.574219 3.417969 0 4.136719 -0.71875 C 4.714844 -1.257812 5.289062 -1.835938 5.9375 -2.484375 C 8.347656 -2.554688 8.636719 -2.625 9.535156 -3.527344 C 8.996094 -3.851562 8.996094 -3.851562 8.5625 -3.671875 Z M 1.117188 -0.0703125 C 0.753906 -0.0351562 0.46875 -0.25 0.46875 -0.753906 C 0.433594 -1.222656 0.46875 -1.726562 0.574219 -2.195312 C 0.828125 -3.128906 1.152344 -4.03125 1.726562 -4.894531 C 2.230469 -4.460938 2.589844 -4.101562 2.988281 -3.777344 C 3.382812 -3.488281 3.8125 -3.203125 4.246094 -2.914062 C 3.632812 -1.65625 2.050781 -0.25 1.117188 -0.0703125 Z M 5.074219 -4.03125 C 4.210938 -4.460938 3.671875 -5.074219 3.417969 -6.1875 C 3.273438 -6.835938 3.273438 -7.339844 3.5625 -7.914062 C 4.171875 -9.066406 4.929688 -10.003906 5.9375 -10.398438 C 6.40625 -10.148438 6.476562 -9.570312 6.476562 -9.03125 C 6.476562 -7.195312 5.972656 -5.542969 5.074219 -4.03125 Z M 5.074219 -4.03125 "/></g></g></g><g clip-path="url(#21ce9d5ad5)"><g fill="#6d4d3a" fill-opacity="1"><g transform="translate(136.370239, 39.981422)"><g><path d="M 9.824219 -7.160156 C 8.5625 -7.375 7.304688 -7.410156 6.042969 -7.304688 C 4.929688 -7.195312 3.777344 -7.089844 2.375 -6.980469 C 3.453125 -9.5 4.570312 -11.730469 5.613281 -13.996094 C 6.65625 -16.300781 7.699219 -18.636719 8.707031 -21.265625 C 8.203125 -21.121094 7.84375 -21.121094 7.664062 -20.941406 C 7.160156 -20.363281 6.65625 -19.789062 6.296875 -19.105469 C 4.28125 -15.4375 2.265625 -11.695312 0.324219 -7.953125 C -0.179688 -6.980469 -0.71875 -6.261719 -1.871094 -6.042969 C -2.484375 -5.902344 -3.09375 -5.542969 -3.632812 -5.179688 C -4.246094 -4.785156 -4.246094 -4.171875 -3.707031 -3.671875 C -3.308594 -3.273438 -2.84375 -2.988281 -2.375 -2.625 C -2.589844 -2.195312 -2.734375 -1.800781 -2.914062 -1.402344 C -3.5625 0.0703125 -4.246094 1.476562 -4.894531 2.949219 C -6.296875 6.261719 -7.59375 9.644531 -8.457031 13.167969 C -8.816406 14.609375 -9.101562 16.046875 -8.996094 17.558594 C -8.886719 18.925781 -8.132812 19.5 -6.765625 19.320312 C -6.152344 19.25 -5.613281 18.996094 -5.21875 18.492188 C -4.75 17.953125 -4.28125 17.414062 -3.886719 16.839844 C -1.511719 13.421875 0.214844 9.714844 1.402344 5.757812 C 1.691406 4.820312 1.90625 3.851562 2.015625 2.878906 C 2.304688 0.898438 2.050781 -0.972656 0.71875 -2.554688 C 0.613281 -2.664062 0.574219 -2.84375 0.503906 -3.058594 C 0.792969 -3.707031 1.117188 -4.390625 1.4375 -5.039062 C 1.65625 -5.144531 1.800781 -5.21875 1.980469 -5.253906 C 4.535156 -5.722656 7.089844 -6.441406 9.75 -5.972656 C 10.183594 -5.902344 10.613281 -5.9375 10.867188 -6.476562 C 10.648438 -6.910156 10.253906 -7.050781 9.824219 -7.160156 Z M 0.214844 1.65625 C 0.179688 2.625 0.144531 3.632812 -0.109375 4.605469 C -1.1875 8.707031 -2.804688 12.558594 -5.253906 16.082031 C -5.542969 16.480469 -5.863281 16.839844 -6.152344 17.234375 C -6.226562 17.308594 -6.332031 17.34375 -6.476562 17.378906 C -6.835938 17.308594 -6.765625 16.945312 -6.726562 16.730469 C -6.546875 15.722656 -6.40625 14.679688 -6.152344 13.671875 C -5 9.390625 -3.273438 5.289062 -1.476562 1.222656 C -1.222656 0.648438 -0.933594 0.0703125 -0.539062 -0.792969 C 0.109375 0.144531 0.25 0.898438 0.214844 1.65625 Z M 0.214844 1.65625 "/></g></g></g></g><g fill="#6d4d3a" fill-opacity="1"><g transform="translate(145.86919, 39.981422)"><g/></g></g><g fill="#6d4d3a" fill-opacity="1"><g transform="translate(157.167187, 39.981422)"><g><path d="M 6.476562 4.355469 C 7.554688 -0.394531 8.597656 -5.179688 9.714844 -9.929688 C 11.332031 -16.839844 13.167969 -23.746094 14.210938 -30.800781 C 14.320312 -31.445312 14.644531 -31.769531 15.253906 -31.878906 C 17.089844 -32.203125 18.925781 -32.5625 20.726562 -32.886719 C 21.371094 -32.996094 22.019531 -32.921875 22.558594 -33.390625 C 22.308594 -33.929688 21.914062 -33.859375 21.550781 -33.894531 C 19.574219 -33.964844 17.59375 -33.859375 15.652344 -33.460938 C 15.113281 -33.355469 14.609375 -33.28125 14.070312 -33.570312 C 13.601562 -33.859375 12.988281 -33.820312 12.703125 -33.425781 C 11.980469 -32.453125 10.9375 -32.417969 9.964844 -32.128906 C 8.921875 -31.808594 7.878906 -31.484375 6.835938 -31.125 C 6.476562 -31.015625 6.117188 -30.835938 6.152344 -30.332031 C 6.441406 -29.9375 6.871094 -29.828125 7.304688 -29.898438 C 8.238281 -30.007812 9.140625 -30.1875 10.039062 -30.367188 C 10.507812 -30.476562 10.9375 -30.691406 11.515625 -30.621094 C 11.476562 -30.332031 11.476562 -30.117188 11.441406 -29.898438 C 10.648438 -26.300781 9.824219 -22.738281 9.066406 -19.140625 C 7.914062 -13.566406 6.800781 -7.988281 5.757812 -2.375 C 5.21875 0.359375 4.929688 3.128906 4.496094 6.042969 C 4.03125 6.117188 3.417969 6.1875 2.84375 6.332031 C 1.90625 6.511719 0.933594 6.726562 0 7.015625 C -0.214844 7.050781 -0.359375 7.339844 -0.613281 7.664062 C -0.179688 7.808594 0.144531 7.988281 0.433594 7.988281 C 1.296875 7.988281 2.195312 8.023438 3.058594 7.878906 C 6.835938 7.230469 10.613281 6.585938 14.390625 5.9375 C 14.824219 5.828125 15.328125 5.757812 15.796875 5.21875 C 14.140625 4.894531 12.628906 5.21875 11.152344 5.289062 C 9.570312 5.359375 8.023438 5.863281 6.261719 5.648438 C 6.332031 5.074219 6.40625 4.714844 6.476562 4.355469 Z M 6.476562 4.355469 "/></g></g></g><g fill="#6d4d3a" fill-opacity="1"><g transform="translate(170.660009, 39.981422)"><g><path d="M 12.449219 -3.992188 C 11.261719 -3.273438 10.253906 -2.230469 8.78125 -1.546875 C 8.960938 -2.265625 9.066406 -2.804688 9.246094 -3.273438 C 9.824219 -4.820312 10.433594 -6.367188 10.972656 -7.914062 C 11.191406 -8.457031 11.371094 -9.03125 11.476562 -9.644531 C 11.621094 -10.613281 11.191406 -11.011719 10.183594 -11.046875 C 9.535156 -11.082031 8.960938 -10.9375 8.457031 -10.578125 C 7.59375 -9.929688 6.691406 -9.28125 5.863281 -8.5625 C 4.894531 -7.699219 3.992188 -6.726562 3.058594 -5.792969 C 2.878906 -5.648438 2.664062 -5.542969 2.230469 -5.21875 C 2.589844 -6.441406 2.914062 -7.375 3.128906 -8.3125 C 3.382812 -9.355469 3.058594 -9.714844 1.980469 -9.679688 C 1.761719 -9.679688 1.582031 -9.535156 1.332031 -9.464844 C 0.828125 -7.773438 0.289062 -6.082031 -0.144531 -4.390625 C -0.433594 -3.203125 0.144531 -2.589844 1.367188 -2.878906 C 1.761719 -2.949219 2.160156 -3.203125 2.519531 -3.453125 C 3.09375 -3.921875 3.671875 -4.460938 4.210938 -4.964844 C 5.144531 -5.902344 6.082031 -6.835938 7.015625 -7.734375 C 7.628906 -8.3125 8.277344 -8.78125 8.921875 -9.320312 C 9.210938 -8.671875 8.851562 -8.238281 8.707031 -7.808594 C 8.167969 -6.152344 7.554688 -4.496094 7.015625 -2.84375 C 6.835938 -2.265625 6.800781 -1.65625 6.765625 -1.042969 C 6.765625 -0.46875 7.089844 -0.144531 7.664062 -0.0703125 C 8.09375 -0.0351562 8.5625 -0.0351562 8.960938 -0.179688 C 9.5 -0.394531 10.039062 -0.683594 10.507812 -1.078125 C 12.269531 -2.519531 14.03125 -3.992188 15.796875 -5.46875 C 15.902344 -5.578125 15.976562 -5.722656 16.191406 -6.007812 C 14.535156 -5.828125 13.566406 -4.75 12.449219 -3.992188 Z M 12.449219 -3.992188 "/></g></g></g><g fill="#6d4d3a" fill-opacity="1"><g transform="translate(185.088333, 39.981422)"><g><path d="M 21.230469 -36.449219 C 19.574219 -36.84375 19.285156 -36.738281 18.78125 -35.511719 C 18.601562 -35.046875 18.421875 -34.578125 18.277344 -34.109375 C 16.875 -29.898438 15.398438 -25.726562 14.03125 -21.480469 C 12.988281 -18.242188 11.585938 -15.148438 9.894531 -12.199219 C 7.988281 -8.921875 5.648438 -6.082031 2.554688 -3.886719 C 2.050781 -3.527344 1.546875 -3.203125 1.007812 -2.949219 C 0.792969 -2.84375 0.539062 -2.84375 0.25 -2.804688 C -0.0351562 -3.5625 0.144531 -4.210938 0.394531 -4.785156 C 1.367188 -6.871094 2.625 -8.707031 4.28125 -10.253906 C 4.605469 -10.542969 5 -10.757812 5.289062 -10.972656 C 5.792969 -10.832031 6.1875 -10.722656 6.546875 -10.578125 C 6.835938 -11.152344 6.65625 -11.441406 6.226562 -11.585938 C 5.324219 -11.835938 4.460938 -11.65625 3.707031 -11.191406 C 1.222656 -9.570312 -0.46875 -7.304688 -1.617188 -4.640625 C -1.691406 -4.570312 -1.691406 -4.460938 -1.726562 -4.355469 C -2.085938 -2.625 -1.402344 -1.980469 0.214844 -1.90625 C 0.46875 -1.871094 0.753906 -1.980469 1.007812 -2.015625 C 1.980469 -2.195312 2.769531 -2.664062 3.488281 -3.238281 C 5.648438 -4.894531 7.554688 -6.765625 9.175781 -8.921875 C 9.464844 -9.355469 9.644531 -9.929688 10.289062 -10.148438 C 10.46875 -9.5 10.148438 -8.921875 10.003906 -8.382812 C 9.140625 -5.253906 8.238281 -2.160156 7.410156 0.972656 C 6.980469 2.664062 6.65625 4.390625 6.332031 6.117188 C 6.226562 6.621094 6.082031 7.160156 6.546875 7.734375 C 6.765625 7.59375 6.980469 7.519531 7.089844 7.375 C 7.269531 6.980469 7.410156 6.585938 7.554688 6.152344 C 10.433594 -4.246094 13.925781 -14.464844 17.488281 -24.648438 C 18.566406 -27.742188 19.644531 -30.871094 20.6875 -33.964844 C 20.941406 -34.757812 21.335938 -35.476562 21.230469 -36.449219 Z M 21.230469 -36.449219 "/></g></g></g><g fill="#6d4d3a" fill-opacity="1"><g transform="translate(198.581155, 39.981422)"><g><path d="M 12.199219 -9.390625 C 11.476562 -9.101562 11.296875 -8.5625 11.011719 -8.132812 C 9.246094 -5.792969 7.160156 -3.8125 4.640625 -2.265625 C 3.957031 -1.835938 3.273438 -1.402344 2.304688 -1.332031 C 2.160156 -1.691406 1.980469 -2.015625 1.941406 -2.375 C 1.941406 -2.804688 2.015625 -3.238281 2.121094 -3.671875 C 2.589844 -5.179688 3.058594 -6.691406 3.5625 -8.203125 C 3.707031 -8.707031 3.992188 -9.210938 3.921875 -9.75 C 2.699219 -10.183594 2.339844 -10.109375 1.800781 -9.210938 C 0.792969 -7.449219 0 -5.578125 -0.46875 -3.597656 C -0.503906 -3.382812 -0.539062 -3.167969 -0.574219 -2.949219 C -0.792969 -1.1875 -0.0351562 -0.25 1.761719 -0.179688 C 3.023438 -0.109375 4.136719 -0.433594 5.21875 -1.078125 C 7.699219 -2.625 9.824219 -4.570312 11.40625 -7.089844 C 11.730469 -7.59375 11.980469 -8.132812 12.199219 -8.707031 C 12.269531 -8.851562 12.199219 -9.066406 12.199219 -9.390625 Z M 4.605469 -13.132812 C 4.785156 -13.277344 4.929688 -13.421875 5.039062 -13.601562 C 5.289062 -14.140625 5.503906 -14.679688 5.828125 -15.328125 C 4.820312 -15.617188 3.957031 -15.578125 3.128906 -15.113281 C 2.484375 -14.753906 2.265625 -13.925781 2.589844 -13.421875 C 3.023438 -12.773438 3.992188 -12.628906 4.605469 -13.132812 Z M 4.605469 -13.132812 "/></g></g></g><g fill="#6d4d3a" fill-opacity="1"><g transform="translate(209.051592, 39.981422)"><g><path d="M 11.765625 -6.65625 C 11.980469 -7.808594 12.160156 -8.921875 12.304688 -10.074219 C 12.378906 -10.6875 12.054688 -10.972656 11.441406 -11.011719 C 10.972656 -11.046875 10.578125 -10.9375 10.21875 -10.613281 C 10.003906 -10.398438 9.75 -10.183594 9.464844 -9.894531 C 9.425781 -10.148438 9.355469 -10.289062 9.390625 -10.433594 C 9.5 -11.695312 9.140625 -12.199219 7.953125 -12.269531 C 7.410156 -12.304688 6.835938 -12.234375 6.367188 -12.019531 C 5.683594 -11.695312 5 -11.296875 4.425781 -10.792969 C 2.230469 -8.707031 0.648438 -6.226562 -0.324219 -3.382812 C -0.503906 -2.878906 -0.574219 -2.304688 -0.613281 -1.761719 C -0.648438 -0.71875 -0.214844 -0.289062 0.863281 -0.25 C 1.65625 -0.214844 2.410156 -0.503906 3.023438 -0.933594 C 3.851562 -1.546875 4.675781 -2.195312 5.433594 -2.914062 C 6.476562 -3.957031 7.449219 -5.074219 8.457031 -6.152344 C 8.742188 -6.476562 9.066406 -6.765625 9.5 -7.195312 C 9.535156 -6.765625 9.570312 -6.585938 9.570312 -6.367188 C 9.425781 -5.179688 9.28125 -3.992188 9.140625 -2.804688 C 8.996094 -1.296875 9.101562 0.179688 9.390625 1.617188 C 9.714844 3.023438 10.21875 3.347656 11.765625 3.273438 C 11.082031 2.84375 10.867188 2.195312 10.867188 1.476562 C 10.902344 0.0351562 10.902344 -1.367188 11.046875 -2.804688 C 11.191406 -4.101562 11.550781 -5.359375 11.765625 -6.65625 Z M 1.332031 -1.4375 C 1.222656 -2.769531 1.800781 -3.707031 2.265625 -4.675781 C 3.777344 -7.59375 5.578125 -9.824219 7.269531 -10.867188 C 7.953125 -9.929688 7.050781 -8.78125 7.808594 -7.988281 C 6.296875 -5.359375 3.417969 -2.410156 1.332031 -1.4375 Z M 1.332031 -1.4375 "/></g></g></g></svg>