<svg xmlns="http://www.w3.org/2000/svg" xmlns:xlink="http://www.w3.org/1999/xlink" width="300" zoomAndPan="magnify" viewBox="0 0 224.87999 60" height="80" preserveAspectRatio="xMidYMid meet" version="1.0"><defs><g/></defs><g fill="#6d4d3a" fill-opacity="1"><g transform="translate(0, 41.206506)"><g><path d="M 27.941406 -9.8125 C 23.59375 -5.582031 18.015625 -1.234375 11.648438 -1.234375 C 8.988281 -1.234375 7.226562 -2.097656 5.691406 -4.269531 C 6.855469 -4.042969 7.976562 -3.894531 9.175781 -3.894531 C 13.96875 -3.894531 18.164062 -5.730469 21.949219 -8.613281 C 25.054688 -11.011719 28.277344 -14.496094 28.277344 -18.6875 C 28.277344 -22.132812 24.867188 -23.257812 21.984375 -23.257812 C 18.988281 -23.257812 16.441406 -22.398438 13.78125 -21.046875 C 10.300781 -20.710938 7.265625 -20.1875 4.382812 -18.089844 C 1.871094 -16.253906 0.113281 -13.59375 0.113281 -10.410156 C 0.113281 -7.492188 2.320312 -5.394531 4.90625 -4.457031 C 6.855469 -1.160156 9.214844 0.0390625 12.996094 0.0390625 C 16.367188 0.0390625 19.402344 -1.011719 22.359375 -2.621094 C 25.730469 -4.457031 28.425781 -7.078125 31.046875 -9.8125 L 34.980469 -9.8125 C 33.78125 -7.753906 31.722656 -4.082031 31.722656 -1.683594 C 31.722656 -0.824219 32.246094 0 33.183594 0 C 34.945312 0 38.6875 -3.707031 39.851562 -4.980469 C 40.074219 -5.207031 41.160156 -6.40625 41.160156 -6.742188 C 41.160156 -6.777344 41.125 -6.855469 41.085938 -6.855469 C 40.824219 -6.703125 39.4375 -5.242188 39.175781 -4.980469 C 38.3125 -4.121094 35.28125 -1.011719 34.042969 -1.011719 C 33.707031 -1.011719 33.558594 -1.386719 33.558594 -1.648438 C 33.558594 -3.257812 38.839844 -11.3125 39.8125 -12.769531 C 41.011719 -14.570312 42.285156 -16.328125 43.558594 -18.089844 C 45.019531 -20.1875 46.480469 -22.246094 48.050781 -24.269531 C 48.351562 -24.644531 48.914062 -25.394531 48.914062 -25.917969 C 48.914062 -26.515625 48.464844 -26.628906 47.976562 -26.628906 C 45.992188 -26.628906 42.132812 -23.035156 40.75 -21.796875 C 37.828125 -19.175781 34.980469 -16.441406 32.097656 -13.746094 C 30.9375 -12.621094 29.738281 -11.496094 28.5 -10.410156 L 25.167969 -10.410156 C 24.945312 -10.410156 24.644531 -10.375 24.644531 -10.074219 C 24.644531 -9.851562 25.019531 -9.8125 25.167969 -9.8125 Z M 31.574219 -10.410156 C 34.082031 -13.144531 36.554688 -15.917969 39.0625 -18.613281 C 40.375 -20.074219 41.648438 -21.535156 43.070312 -22.882812 C 44.007812 -23.78125 46.367188 -25.917969 47.714844 -25.917969 C 47.863281 -25.917969 47.976562 -25.917969 47.976562 -25.730469 C 47.976562 -25.503906 45.582031 -23.035156 45.28125 -22.695312 C 41.722656 -18.800781 38.351562 -14.71875 35.28125 -10.410156 Z M 27.714844 -18.613281 C 27.714844 -17.566406 27.378906 -16.480469 26.964844 -15.503906 C 25.316406 -11.648438 21.871094 -8.800781 18.238281 -6.855469 C 15.730469 -5.503906 12.472656 -4.457031 9.625 -4.457031 C 8.164062 -4.457031 6.777344 -4.644531 5.355469 -4.980469 C 5.09375 -5.84375 4.945312 -6.480469 4.945312 -7.414062 C 4.945312 -12.769531 9.402344 -17.863281 13.78125 -20.449219 C 15.355469 -20.410156 17.117188 -20.261719 18.652344 -19.773438 C 19.027344 -19.664062 19.886719 -19.25 20.261719 -19.25 C 20.375 -19.25 20.449219 -19.324219 20.449219 -19.4375 C 20.449219 -20.375 15.878906 -20.972656 15.054688 -21.046875 C 17.378906 -22.097656 19.664062 -22.769531 22.246094 -22.769531 C 24.832031 -22.769531 27.714844 -21.609375 27.714844 -18.613281 Z M 12.359375 -20.300781 C 8.351562 -17.492188 4.417969 -12.359375 4.417969 -7.265625 C 4.417969 -6.554688 4.496094 -5.878906 4.679688 -5.167969 C 2.472656 -6.140625 0.597656 -7.828125 0.597656 -10.410156 C 0.597656 -13.144531 2.546875 -16.105469 4.71875 -17.640625 C 6.929688 -19.214844 9.664062 -20.074219 12.359375 -20.300781 Z M 12.359375 -20.300781 "/></g></g></g><g fill="#6d4d3a" fill-opacity="1"><g transform="translate(40.930197, 41.206506)"><g><path d="M 9.324219 -6.628906 C 9.324219 -6.742188 9.214844 -6.816406 9.101562 -6.816406 C 8.765625 -6.816406 3.519531 -0.863281 1.574219 -0.863281 C 1.273438 -0.863281 1.046875 -1.085938 1.046875 -1.386719 C 1.046875 -3.484375 5.355469 -7.566406 6.589844 -8.765625 C 6.703125 -8.875 7.339844 -9.402344 7.339844 -9.589844 C 7.339844 -9.699219 7.152344 -9.851562 7.078125 -9.925781 C 6.367188 -9.738281 5.582031 -9.511719 4.867188 -9.511719 C 4.53125 -9.511719 4.195312 -9.625 3.894531 -9.773438 C 4.230469 -10.113281 4.679688 -10.5625 4.679688 -11.085938 C 4.679688 -11.460938 4.496094 -11.910156 4.042969 -11.910156 C 3.109375 -11.910156 2.773438 -10.636719 2.773438 -9.886719 C 1.910156 -8.839844 1.011719 -7.828125 0.0390625 -6.890625 C -0.0390625 -6.816406 -0.261719 -6.628906 -0.261719 -6.480469 C -0.261719 -6.367188 -0.1875 -6.292969 -0.0742188 -6.292969 C 0.1875 -6.292969 2.585938 -8.953125 2.921875 -9.324219 C 3.257812 -9.0625 3.820312 -8.839844 4.230469 -8.839844 C 4.605469 -8.839844 4.980469 -8.875 5.355469 -8.988281 C 3.671875 -7.601562 -0.5625 -4.230469 -0.5625 -1.835938 C -0.5625 -0.785156 0.0390625 -0.148438 1.085938 -0.148438 C 2.996094 -0.148438 6.777344 -3.96875 8.164062 -5.316406 C 8.316406 -5.46875 9.324219 -6.441406 9.324219 -6.628906 Z M 9.324219 -6.628906 "/></g></g></g><g fill="#6d4d3a" fill-opacity="1"><g transform="translate(49.955066, 41.206506)"><g><path d="M -0.226562 -6.777344 C -1.3125 -5.503906 -3.222656 -3.410156 -3.222656 -1.609375 C -3.222656 -0.5625 -2.507812 0 -1.5 0 C 0.9375 0 4.980469 -4.195312 6.554688 -5.804688 C 6.703125 -5.953125 7.265625 -6.554688 7.265625 -6.703125 C 7.265625 -6.816406 7.152344 -6.855469 7.078125 -6.855469 C 6.855469 -6.855469 6.292969 -6.140625 6.140625 -5.992188 C 5.054688 -4.945312 0.5625 -0.597656 -1.085938 -0.597656 C -1.5 -0.597656 -1.871094 -0.898438 -1.871094 -1.347656 C -1.871094 -2.320312 -0.785156 -3.445312 -0.226562 -4.15625 L 6.441406 -12.246094 L 8.800781 -12.246094 L 9.175781 -12.882812 L 6.890625 -12.882812 L 10.898438 -17.679688 L 8.800781 -17.378906 L 5.019531 -12.882812 L 2.847656 -12.882812 L 2.433594 -12.246094 L 4.496094 -12.246094 Z M -0.226562 -6.777344 "/></g></g></g><g fill="#6d4d3a" fill-opacity="1"><g transform="translate(56.882867, 41.206506)"><g><path d="M 6.40625 -12.734375 C 6.40625 -13.144531 6.066406 -13.484375 5.65625 -13.484375 C 5.019531 -13.484375 4.417969 -12.921875 4.417969 -12.285156 C 4.417969 -11.871094 4.757812 -11.535156 5.167969 -11.535156 C 5.804688 -11.535156 6.40625 -12.097656 6.40625 -12.734375 Z M 0.972656 -8.128906 C -0.0390625 -6.855469 -3.257812 -3.222656 -3.257812 -1.535156 C -3.257812 -0.636719 -2.472656 0 -1.609375 0 C 0.410156 0 5.09375 -4.496094 6.441406 -5.769531 C 6.628906 -5.953125 7.191406 -6.367188 7.191406 -6.628906 C 7.191406 -6.703125 7.152344 -6.816406 7.042969 -6.816406 C 6.890625 -6.816406 0.375 -0.597656 -1.421875 -0.597656 C -1.761719 -0.597656 -1.949219 -0.785156 -1.949219 -1.125 C -1.949219 -2.023438 0.335938 -4.757812 0.898438 -5.429688 L 4.496094 -9.886719 L 2.210938 -9.664062 Z M 0.972656 -8.128906 "/></g></g></g><g fill="#6d4d3a" fill-opacity="1"><g transform="translate(63.810668, 41.206506)"><g><path d="M 11.386719 -6.667969 C 11.386719 -6.777344 11.273438 -6.816406 11.199219 -6.816406 C 11.011719 -6.816406 9.476562 -5.316406 9.289062 -5.167969 C 7.339844 -3.445312 3.222656 -0.488281 0.636719 -0.488281 C 3.144531 -1.722656 5.878906 -3.78125 5.878906 -6.855469 C 5.878906 -8.238281 5.132812 -9.289062 4.417969 -10.410156 C 4.792969 -10.824219 5.207031 -11.3125 5.207031 -11.910156 C 5.207031 -12.210938 5.019531 -12.546875 4.679688 -12.546875 C 3.859375 -12.546875 3.671875 -11.3125 3.632812 -10.710938 C 2.621094 -9.324219 1.3125 -8.128906 0.113281 -6.890625 C 0.0390625 -6.816406 -0.300781 -6.515625 -0.300781 -6.367188 C -0.300781 -6.292969 -0.261719 -6.179688 -0.148438 -6.179688 C 0.0390625 -6.179688 3.332031 -9.625 3.78125 -10.113281 C 4.308594 -9.363281 4.457031 -8.839844 4.457031 -7.941406 C 4.457031 -5.503906 1.535156 -0.523438 -1.199219 -0.523438 C -1.683594 -0.523438 -2.285156 -0.9375 -2.285156 -1.460938 C -2.285156 -2.546875 -0.410156 -1.648438 -0.410156 -2.808594 C -0.410156 -3.257812 -0.898438 -3.410156 -1.273438 -3.410156 C -2.246094 -3.410156 -2.847656 -2.507812 -2.847656 -1.609375 C -2.847656 -0.113281 -1.160156 0 -0.0390625 0 C 3.332031 0 6.515625 -2.398438 9.0625 -4.382812 C 9.402344 -4.644531 11.386719 -6.179688 11.386719 -6.667969 Z M 11.386719 -6.667969 "/></g></g></g><g fill="#6d4d3a" fill-opacity="1"><g transform="translate(74.895151, 41.206506)"><g><path d="M 7.714844 -8.5 C 7.753906 -8.613281 7.789062 -8.765625 7.789062 -8.875 C 7.789062 -9.550781 6.890625 -9.738281 6.367188 -9.738281 C 3.144531 -9.738281 -3.035156 -5.542969 -3.035156 -2.058594 C -3.035156 -0.824219 -2.097656 0 -0.898438 0 C 0.523438 0 2.246094 -1.761719 3.222656 -2.660156 C 3.070312 -2.210938 2.882812 -1.648438 2.882812 -1.199219 C 2.882812 -0.375 3.558594 0 4.308594 0 C 6.515625 0 10.261719 -3.410156 11.761719 -4.867188 C 12.023438 -5.09375 13.40625 -6.328125 13.40625 -6.628906 C 13.40625 -6.742188 13.371094 -6.816406 13.257812 -6.816406 C 13.070312 -6.816406 6.855469 -0.636719 4.945312 -0.636719 C 4.679688 -0.636719 4.34375 -0.785156 4.34375 -1.125 C 4.34375 -1.574219 5.503906 -3.109375 5.804688 -3.484375 L 10.675781 -9.625 L 8.539062 -9.511719 Z M 7.042969 -8.464844 C 7.042969 -6.777344 0.710938 -0.449219 -0.898438 -0.449219 C -1.273438 -0.449219 -1.609375 -0.863281 -1.609375 -1.234375 C -1.609375 -2.621094 1.160156 -5.503906 2.058594 -6.40625 C 2.996094 -7.339844 4.832031 -9.214844 6.292969 -9.214844 C 6.703125 -9.214844 7.042969 -8.875 7.042969 -8.464844 Z M 7.042969 -8.464844 "/></g></g></g><g fill="#6d4d3a" fill-opacity="1"><g transform="translate(88.076703, 41.206506)"><g><path d="M -2.210938 -0.300781 L -0.113281 -0.410156 C 1.984375 -2.660156 3.671875 -5.355469 6.066406 -7.339844 C 6.667969 -7.828125 8.425781 -9.402344 9.289062 -9.402344 C 9.511719 -9.402344 9.699219 -9.214844 9.699219 -8.988281 C 9.699219 -7.789062 5.019531 -3.632812 5.019531 -1.609375 C 5.019531 -0.824219 5.730469 -0.113281 6.515625 -0.113281 C 9.136719 -0.113281 12.660156 -4.230469 14.382812 -6.03125 C 14.53125 -6.179688 14.945312 -6.554688 14.945312 -6.742188 C 14.945312 -6.816406 14.90625 -6.964844 14.792969 -6.964844 C 14.457031 -6.964844 9.25 -0.824219 7.152344 -0.824219 C 6.777344 -0.824219 6.628906 -1.046875 6.628906 -1.386719 C 6.628906 -3.144531 11.125 -6.703125 11.125 -8.800781 C 11.125 -9.511719 10.5625 -10 9.886719 -10 C 8.203125 -10 6.367188 -8.277344 5.132812 -7.265625 C 5.355469 -7.789062 5.617188 -8.316406 5.617188 -8.875 C 5.617188 -9.625 5.132812 -10.1875 4.382812 -10.1875 C 3.222656 -10.1875 2.847656 -9.699219 2.058594 -8.914062 C 1.574219 -8.425781 1.046875 -7.902344 0.5625 -7.414062 C 0.449219 -7.304688 -0.261719 -6.628906 -0.261719 -6.480469 C -0.261719 -6.40625 -0.226562 -6.292969 -0.113281 -6.292969 C 0.375 -6.292969 2.847656 -9.476562 3.894531 -9.476562 C 4.195312 -9.476562 4.34375 -9.214844 4.34375 -8.953125 C 4.34375 -8.164062 2.398438 -5.917969 1.949219 -5.355469 Z M -2.210938 -0.300781 "/></g></g></g><g fill="#6d4d3a" fill-opacity="1"><g transform="translate(102.643807, 41.206506)"><g><path d="M 11.386719 -6.667969 C 11.386719 -6.777344 11.273438 -6.816406 11.199219 -6.816406 C 11.011719 -6.816406 9.476562 -5.316406 9.289062 -5.167969 C 7.339844 -3.445312 3.222656 -0.488281 0.636719 -0.488281 C 3.144531 -1.722656 5.878906 -3.78125 5.878906 -6.855469 C 5.878906 -8.238281 5.132812 -9.289062 4.417969 -10.410156 C 4.792969 -10.824219 5.207031 -11.3125 5.207031 -11.910156 C 5.207031 -12.210938 5.019531 -12.546875 4.679688 -12.546875 C 3.859375 -12.546875 3.671875 -11.3125 3.632812 -10.710938 C 2.621094 -9.324219 1.3125 -8.128906 0.113281 -6.890625 C 0.0390625 -6.816406 -0.300781 -6.515625 -0.300781 -6.367188 C -0.300781 -6.292969 -0.261719 -6.179688 -0.148438 -6.179688 C 0.0390625 -6.179688 3.332031 -9.625 3.78125 -10.113281 C 4.308594 -9.363281 4.457031 -8.839844 4.457031 -7.941406 C 4.457031 -5.503906 1.535156 -0.523438 -1.199219 -0.523438 C -1.683594 -0.523438 -2.285156 -0.9375 -2.285156 -1.460938 C -2.285156 -2.546875 -0.410156 -1.648438 -0.410156 -2.808594 C -0.410156 -3.257812 -0.898438 -3.410156 -1.273438 -3.410156 C -2.246094 -3.410156 -2.847656 -2.507812 -2.847656 -1.609375 C -2.847656 -0.113281 -1.160156 0 -0.0390625 0 C 3.332031 0 6.515625 -2.398438 9.0625 -4.382812 C 9.402344 -4.644531 11.386719 -6.179688 11.386719 -6.667969 Z M 11.386719 -6.667969 "/></g></g></g><g fill="#6d4d3a" fill-opacity="1"><g transform="translate(113.728291, 41.206506)"><g/></g></g><g fill="#6d4d3a" fill-opacity="1"><g transform="translate(123.428542, 41.206506)"><g><path d="M 11.386719 -6.667969 C 11.386719 -6.777344 11.273438 -6.816406 11.199219 -6.816406 C 11.085938 -6.816406 10.449219 -6.21875 10.335938 -6.105469 C 8.988281 -5.054688 7.941406 -4.71875 6.253906 -4.71875 C 6.890625 -5.769531 7.714844 -7.078125 7.714844 -8.351562 C 7.714844 -9.402344 7.117188 -10.039062 6.066406 -10.039062 C 2.921875 -10.039062 -2.808594 -5.503906 -2.808594 -2.210938 C -2.808594 -1.085938 -1.910156 0 -0.75 0 C 1.460938 0 4.457031 -2.695312 5.878906 -4.269531 C 6.328125 -4.195312 6.742188 -4.195312 7.191406 -4.195312 C 7.902344 -4.195312 9.324219 -4.832031 9.886719 -5.242188 C 10.148438 -5.429688 11.386719 -6.367188 11.386719 -6.667969 Z M 7.191406 -8.425781 C 7.191406 -7.003906 5.542969 -4.679688 4.570312 -3.707031 C 3.632812 -2.773438 0.972656 -0.5625 -0.449219 -0.5625 C -1.046875 -0.5625 -1.535156 -0.972656 -1.535156 -1.609375 C -1.535156 -2.546875 0 -4.34375 0.523438 -4.980469 C 1.683594 -6.40625 4.269531 -9.289062 6.328125 -9.289062 C 6.816406 -9.289062 7.191406 -8.914062 7.191406 -8.425781 Z M 7.191406 -8.425781 "/></g></g></g><g fill="#6d4d3a" fill-opacity="1"><g transform="translate(134.513025, 41.206506)"><g><path d="M -7.078125 6.367188 C -5.878906 4.269531 -4.496094 2.285156 -3.183594 0.261719 C 0.710938 0.261719 4.417969 -2.847656 6.929688 -5.503906 C 7.117188 -5.691406 8.238281 -6.777344 8.238281 -6.964844 C 8.238281 -7.078125 8.128906 -7.117188 8.050781 -7.117188 C 7.453125 -7.117188 2.546875 -0.5625 -2.808594 -0.335938 C -0.523438 -3.632812 1.835938 -6.855469 4.269531 -10.039062 C 7.378906 -11.535156 10.488281 -13.257812 13.109375 -15.542969 C 14.308594 -16.589844 17.453125 -19.851562 17.453125 -21.574219 C 17.453125 -22.246094 16.964844 -22.808594 16.292969 -22.808594 C 14.082031 -22.808594 9.773438 -18.464844 8.351562 -16.964844 C 3.519531 -11.910156 -0.5625 -6.21875 -4.679688 -0.597656 C -4.945312 -0.675781 -5.394531 -0.9375 -5.65625 -0.9375 C -5.84375 -0.9375 -6.140625 -0.488281 -6.140625 -0.300781 C -6.140625 0 -5.394531 0.148438 -5.242188 0.1875 C -6.554688 2.398438 -7.902344 4.53125 -9.214844 6.742188 Z M 16.964844 -21.609375 C 16.964844 -19.886719 14.605469 -17.679688 13.445312 -16.589844 C 11.011719 -14.308594 8.015625 -12.660156 5.09375 -11.046875 C 6.703125 -13.183594 13.371094 -22.320312 16.140625 -22.320312 C 16.554688 -22.320312 16.964844 -22.097656 16.964844 -21.609375 Z M 16.964844 -21.609375 "/></g></g></g><g fill="#6d4d3a" fill-opacity="1"><g transform="translate(142.152329, 41.206506)"><g/></g></g><g fill="#6d4d3a" fill-opacity="1"><g transform="translate(151.851248, 41.206506)"><g><path d="M 8.128906 -8.089844 C 8.089844 -7.714844 8.050781 -7.304688 8.050781 -6.929688 C 8.050781 -5.46875 8.203125 -4.757812 8.464844 -4.757812 C 8.578125 -4.757812 8.613281 -4.980469 8.613281 -5.054688 C 8.613281 -5.65625 8.539062 -6.253906 8.539062 -6.855469 C 8.539062 -7.304688 8.578125 -7.714844 8.613281 -8.164062 C 10.972656 -8.425781 13.222656 -9.027344 15.46875 -9.8125 C 13.035156 -5.917969 9.136719 -0.523438 4.007812 -0.523438 C 2.285156 -0.523438 0.710938 -1.234375 0.710938 -3.183594 C 0.710938 -3.632812 1.085938 -5.242188 1.683594 -5.242188 C 2.097656 -5.242188 2.472656 -5.054688 2.882812 -5.054688 C 3.445312 -5.054688 4.082031 -5.582031 4.082031 -6.140625 C 4.082031 -6.628906 3.59375 -7.042969 3.109375 -7.042969 C 1.386719 -7.042969 0.148438 -4.867188 0.148438 -3.332031 C 0.148438 -0.898438 1.910156 0 4.121094 0 C 11.160156 0 16.253906 -6.253906 19.664062 -11.683594 C 22.847656 -13.144531 29.101562 -17.078125 29.101562 -21.160156 C 29.101562 -22.398438 28.3125 -23.144531 27.226562 -23.558594 C 28.652344 -25.207031 30.300781 -26.515625 32.246094 -27.492188 C 32.398438 -27.566406 32.585938 -27.640625 32.585938 -27.863281 C 32.585938 -28.015625 32.398438 -28.050781 31.761719 -28.050781 C 25.617188 -28.050781 15.207031 -26.292969 9.773438 -23.519531 C 6.140625 -21.683594 0.710938 -17.679688 0.710938 -13.109375 C 0.710938 -9.511719 3.59375 -8.089844 6.816406 -8.089844 Z M 28.578125 -21.125 C 28.578125 -17.902344 23.109375 -13.707031 20.335938 -12.660156 C 22.507812 -16.105469 24.382812 -19.851562 26.890625 -23.070312 C 27.828125 -22.734375 28.578125 -22.210938 28.578125 -21.125 Z M 25.242188 -23.257812 C 24.417969 -22.433594 23.632812 -21.609375 22.882812 -20.710938 C 20.375 -17.714844 18.128906 -13.933594 16.03125 -10.597656 C 13.632812 -9.664062 11.273438 -8.914062 8.726562 -8.6875 C 10.039062 -16.03125 17.863281 -22.734375 25.242188 -23.257812 Z M 29.175781 -26.40625 C 28.050781 -25.617188 26.964844 -24.832031 25.992188 -23.859375 C 17.863281 -23.671875 9.773438 -16.554688 8.164062 -8.652344 C 7.679688 -8.578125 7.226562 -8.578125 6.742188 -8.578125 C 3.894531 -8.578125 1.273438 -10 1.273438 -13.144531 C 1.273438 -17.714844 7.191406 -21.234375 10.824219 -22.769531 C 16.589844 -25.242188 22.957031 -26.105469 29.175781 -26.40625 Z M 29.175781 -26.40625 "/></g></g></g><g fill="#6d4d3a" fill-opacity="1"><g transform="translate(173.346154, 41.206506)"><g><path d="M -2.210938 -0.300781 L -0.113281 -0.410156 C 1.984375 -2.660156 3.671875 -5.355469 6.066406 -7.339844 C 6.667969 -7.828125 8.425781 -9.402344 9.289062 -9.402344 C 9.511719 -9.402344 9.699219 -9.214844 9.699219 -8.988281 C 9.699219 -7.789062 5.019531 -3.632812 5.019531 -1.609375 C 5.019531 -0.824219 5.730469 -0.113281 6.515625 -0.113281 C 9.136719 -0.113281 12.660156 -4.230469 14.382812 -6.03125 C 14.53125 -6.179688 14.945312 -6.554688 14.945312 -6.742188 C 14.945312 -6.816406 14.90625 -6.964844 14.792969 -6.964844 C 14.457031 -6.964844 9.25 -0.824219 7.152344 -0.824219 C 6.777344 -0.824219 6.628906 -1.046875 6.628906 -1.386719 C 6.628906 -3.144531 11.125 -6.703125 11.125 -8.800781 C 11.125 -9.511719 10.5625 -10 9.886719 -10 C 8.203125 -10 6.367188 -8.277344 5.132812 -7.265625 C 5.355469 -7.789062 5.617188 -8.316406 5.617188 -8.875 C 5.617188 -9.625 5.132812 -10.1875 4.382812 -10.1875 C 3.222656 -10.1875 2.847656 -9.699219 2.058594 -8.914062 C 1.574219 -8.425781 1.046875 -7.902344 0.5625 -7.414062 C 0.449219 -7.304688 -0.261719 -6.628906 -0.261719 -6.480469 C -0.261719 -6.40625 -0.226562 -6.292969 -0.113281 -6.292969 C 0.375 -6.292969 2.847656 -9.476562 3.894531 -9.476562 C 4.195312 -9.476562 4.34375 -9.214844 4.34375 -8.953125 C 4.34375 -8.164062 2.398438 -5.917969 1.949219 -5.355469 Z M -2.210938 -0.300781 "/></g></g></g><g fill="#6d4d3a" fill-opacity="1"><g transform="translate(187.913258, 41.206506)"><g><path d="M 7.339844 -8.050781 C 7.453125 -8.238281 7.492188 -8.539062 7.492188 -8.800781 C 7.492188 -9.402344 6.480469 -9.925781 5.730469 -9.925781 C 3.671875 -9.925781 1.574219 -8.316406 0.148438 -6.964844 C -1.199219 -5.691406 -3.183594 -3.859375 -3.183594 -1.835938 C -3.183594 -0.636719 -2.546875 0 -1.347656 0 C 0.449219 0 2.136719 -1.609375 3.371094 -2.734375 C 3.222656 -2.359375 3.109375 -1.949219 3.109375 -1.535156 C 3.109375 -0.523438 3.894531 0.0390625 4.832031 0.0390625 C 6.703125 0.0390625 9.4375 -2.996094 10.5625 -4.195312 C 10.75 -4.382812 12.921875 -6.628906 12.921875 -6.777344 C 12.921875 -6.890625 12.847656 -6.964844 12.734375 -6.964844 C 12.132812 -6.964844 7.304688 -0.523438 4.945312 -0.523438 C 4.570312 -0.523438 4.308594 -0.824219 4.308594 -1.199219 C 4.308594 -1.609375 4.757812 -2.210938 4.980469 -2.507812 L 17.191406 -18.6875 L 15.429688 -18.6875 Z M 6.890625 -8.351562 C 6.890625 -6.742188 4.980469 -4.980469 3.933594 -3.933594 C 2.996094 -2.996094 0.335938 -0.597656 -1.085938 -0.597656 C -1.574219 -0.597656 -1.835938 -0.863281 -1.835938 -1.347656 C -1.835938 -2.734375 0.636719 -5.242188 1.535156 -6.179688 C 2.507812 -7.191406 4.417969 -9.324219 5.953125 -9.324219 C 6.554688 -9.324219 6.890625 -8.953125 6.890625 -8.351562 Z M 6.890625 -8.351562 "/></g></g></g><g fill="#6d4d3a" fill-opacity="1"><g transform="translate(200.383295, 41.206506)"><g><path d="M 6.40625 -12.734375 C 6.40625 -13.144531 6.066406 -13.484375 5.65625 -13.484375 C 5.019531 -13.484375 4.417969 -12.921875 4.417969 -12.285156 C 4.417969 -11.871094 4.757812 -11.535156 5.167969 -11.535156 C 5.804688 -11.535156 6.40625 -12.097656 6.40625 -12.734375 Z M 0.972656 -8.128906 C -0.0390625 -6.855469 -3.257812 -3.222656 -3.257812 -1.535156 C -3.257812 -0.636719 -2.472656 0 -1.609375 0 C 0.410156 0 5.09375 -4.496094 6.441406 -5.769531 C 6.628906 -5.953125 7.191406 -6.367188 7.191406 -6.628906 C 7.191406 -6.703125 7.152344 -6.816406 7.042969 -6.816406 C 6.890625 -6.816406 0.375 -0.597656 -1.421875 -0.597656 C -1.761719 -0.597656 -1.949219 -0.785156 -1.949219 -1.125 C -1.949219 -2.023438 0.335938 -4.757812 0.898438 -5.429688 L 4.496094 -9.886719 L 2.210938 -9.664062 Z M 0.972656 -8.128906 "/></g></g></g><g fill="#6d4d3a" fill-opacity="1"><g transform="translate(207.311095, 41.206506)"><g><path d="M 7.714844 -8.5 C 7.753906 -8.613281 7.789062 -8.765625 7.789062 -8.875 C 7.789062 -9.550781 6.890625 -9.738281 6.367188 -9.738281 C 3.144531 -9.738281 -3.035156 -5.542969 -3.035156 -2.058594 C -3.035156 -0.824219 -2.097656 0 -0.898438 0 C 0.523438 0 2.246094 -1.761719 3.222656 -2.660156 C 3.070312 -2.210938 2.882812 -1.648438 2.882812 -1.199219 C 2.882812 -0.375 3.558594 0 4.308594 0 C 6.515625 0 10.261719 -3.410156 11.761719 -4.867188 C 12.023438 -5.09375 13.40625 -6.328125 13.40625 -6.628906 C 13.40625 -6.742188 13.371094 -6.816406 13.257812 -6.816406 C 13.070312 -6.816406 6.855469 -0.636719 4.945312 -0.636719 C 4.679688 -0.636719 4.34375 -0.785156 4.34375 -1.125 C 4.34375 -1.574219 5.503906 -3.109375 5.804688 -3.484375 L 10.675781 -9.625 L 8.539062 -9.511719 Z M 7.042969 -8.464844 C 7.042969 -6.777344 0.710938 -0.449219 -0.898438 -0.449219 C -1.273438 -0.449219 -1.609375 -0.863281 -1.609375 -1.234375 C -1.609375 -2.621094 1.160156 -5.503906 2.058594 -6.40625 C 2.996094 -7.339844 4.832031 -9.214844 6.292969 -9.214844 C 6.703125 -9.214844 7.042969 -8.875 7.042969 -8.464844 Z M 7.042969 -8.464844 "/></g></g></g></svg>